<?xml version="1.0"?>
<svg xmlns="http://www.w3.org/2000/svg" width="850" height="520">
<rect width="850" height="520" fill="#fafafa"/>
<text x="425" y="28" text-anchor="middle" font-size="15" font-weight="bold" font-family="sans-serif">EA: mutation_rate vs avg (budget=100k)</text>
<line x1="75" y1="465" x2="825" y2="465" stroke="#ddd" stroke-width="1"/>
<text x="71" y="469" text-anchor="end" font-size="10" font-family="sans-serif">1559909</text>
<line x1="75" y1="381" x2="825" y2="381" stroke="#ddd" stroke-width="1"/>
<text x="71" y="385" text-anchor="end" font-size="10" font-family="sans-serif">1566854</text>
<line x1="75" y1="297" x2="825" y2="297" stroke="#ddd" stroke-width="1"/>
<text x="71" y="301" text-anchor="end" font-size="10" font-family="sans-serif">1573800</text>
<line x1="75" y1="214" x2="825" y2="214" stroke="#ddd" stroke-width="1"/>
<text x="71" y="218" text-anchor="end" font-size="10" font-family="sans-serif">1580746</text>
<line x1="75" y1="130" x2="825" y2="130" stroke="#ddd" stroke-width="1"/>
<text x="71" y="134" text-anchor="end" font-size="10" font-family="sans-serif">1587691</text>
<line x1="75" y1="45" x2="825" y2="45" stroke="#ddd" stroke-width="1"/>
<text x="71" y="49" text-anchor="end" font-size="10" font-family="sans-serif">1594637</text>
<line x1="75" y1="465" x2="75" y2="469" stroke="#888"/>
<text x="75" y="481" text-anchor="middle" font-size="9" font-family="sans-serif">0.07</text>
<line x1="225" y1="465" x2="225" y2="469" stroke="#888"/>
<text x="225" y="481" text-anchor="middle" font-size="9" font-family="sans-serif">0.25</text>
<line x1="375" y1="465" x2="375" y2="469" stroke="#888"/>
<text x="375" y="481" text-anchor="middle" font-size="9" font-family="sans-serif">0.44</text>
<line x1="524" y1="465" x2="524" y2="469" stroke="#888"/>
<text x="524" y="481" text-anchor="middle" font-size="9" font-family="sans-serif">0.62</text>
<line x1="675" y1="465" x2="675" y2="469" stroke="#888"/>
<text x="675" y="481" text-anchor="middle" font-size="9" font-family="sans-serif">0.80</text>
<line x1="825" y1="465" x2="825" y2="469" stroke="#888"/>
<text x="825" y="481" text-anchor="middle" font-size="9" font-family="sans-serif">0.99</text>
<line x1="75" y1="45" x2="75" y2="465" stroke="#333" stroke-width="1.5"/>
<line x1="75" y1="465" x2="825" y2="465" stroke="#333" stroke-width="1.5"/>
<text x="450" y="515" text-anchor="middle" font-size="12" font-family="sans-serif">mutation_pro</text>
<text transform="rotate(-90,18,255)" x="18" y="259" text-anchor="middle" font-size="11" font-family="sans-serif">Objective value</text>
<line x1="346" y1="356" x2="346" y2="451" stroke="rgb(32,153,80)" stroke-width="1" stroke-opacity="0.5"/>
<circle cx="346" cy="404" r="5" fill="rgb(32,153,80)" fill-opacity="0.75"/>
<line x1="716" y1="115" x2="716" y2="539" stroke="rgb(72,120,80)" stroke-width="1" stroke-opacity="0.5"/>
<circle cx="716" cy="328" r="5" fill="rgb(72,120,80)" fill-opacity="0.75"/>
<line x1="703" y1="362" x2="703" y2="471" stroke="rgb(25,159,80)" stroke-width="1" stroke-opacity="0.5"/>
<circle cx="703" cy="417" r="5" fill="rgb(25,159,80)" fill-opacity="0.75"/>
<line x1="740" y1="328" x2="740" y2="456" stroke="rgb(38,148,80)" stroke-width="1" stroke-opacity="0.5"/>
<circle cx="740" cy="392" r="5" fill="rgb(38,148,80)" fill-opacity="0.75"/>
<line x1="600" y1="375" x2="600" y2="413" stroke="rgb(37,149,80)" stroke-width="1" stroke-opacity="0.5"/>
<circle cx="600" cy="394" r="5" fill="rgb(37,149,80)" fill-opacity="0.75"/>
<line x1="778" y1="42" x2="778" y2="534" stroke="rgb(92,104,80)" stroke-width="1" stroke-opacity="0.5"/>
<circle cx="778" cy="288" r="5" fill="rgb(92,104,80)" fill-opacity="0.75"/>
<line x1="739" y1="132" x2="739" y2="498" stroke="rgb(78,115,80)" stroke-width="1" stroke-opacity="0.5"/>
<circle cx="739" cy="315" r="5" fill="rgb(78,115,80)" fill-opacity="0.75"/>
<line x1="723" y1="299" x2="723" y2="438" stroke="rgb(50,138,80)" stroke-width="1" stroke-opacity="0.5"/>
<circle cx="723" cy="369" r="5" fill="rgb(50,138,80)" fill-opacity="0.75"/>
<line x1="456" y1="307" x2="456" y2="443" stroke="rgb(47,141,80)" stroke-width="1" stroke-opacity="0.5"/>
<circle cx="456" cy="375" r="5" fill="rgb(47,141,80)" fill-opacity="0.75"/>
<line x1="284" y1="359" x2="284" y2="450" stroke="rgb(32,153,80)" stroke-width="1" stroke-opacity="0.5"/>
<circle cx="284" cy="404" r="5" fill="rgb(32,153,80)" fill-opacity="0.75"/>
<line x1="346" y1="231" x2="346" y2="442" stroke="rgb(67,124,80)" stroke-width="1" stroke-opacity="0.5"/>
<circle cx="346" cy="336" r="5" fill="rgb(67,124,80)" fill-opacity="0.75"/>
<line x1="341" y1="370" x2="341" y2="422" stroke="rgb(36,150,80)" stroke-width="1" stroke-opacity="0.5"/>
<circle cx="341" cy="396" r="5" fill="rgb(36,150,80)" fill-opacity="0.75"/>
<line x1="281" y1="310" x2="281" y2="423" stroke="rgb(51,137,80)" stroke-width="1" stroke-opacity="0.5"/>
<circle cx="281" cy="367" r="5" fill="rgb(51,137,80)" fill-opacity="0.75"/>
<line x1="260" y1="158" x2="260" y2="379" stroke="rgb(103,95,80)" stroke-width="1" stroke-opacity="0.5"/>
<circle cx="260" cy="268" r="5" fill="rgb(103,95,80)" fill-opacity="0.75"/>
<line x1="455" y1="278" x2="455" y2="426" stroke="rgb(59,131,80)" stroke-width="1" stroke-opacity="0.5"/>
<circle cx="455" cy="352" r="5" fill="rgb(59,131,80)" fill-opacity="0.75"/>
<line x1="475" y1="379" x2="475" y2="438" stroke="rgb(29,155,80)" stroke-width="1" stroke-opacity="0.5"/>
<circle cx="475" cy="409" r="5" fill="rgb(29,155,80)" fill-opacity="0.75"/>
<line x1="109" y1="334" x2="109" y2="425" stroke="rgb(45,143,80)" stroke-width="1" stroke-opacity="0.5"/>
<circle cx="109" cy="379" r="5" fill="rgb(45,143,80)" fill-opacity="0.75"/>
<line x1="422" y1="365" x2="422" y2="462" stroke="rgb(27,157,80)" stroke-width="1" stroke-opacity="0.5"/>
<circle cx="422" cy="413" r="5" fill="rgb(27,157,80)" fill-opacity="0.75"/>
<line x1="394" y1="301" x2="394" y2="426" stroke="rgb(53,136,80)" stroke-width="1" stroke-opacity="0.5"/>
<circle cx="394" cy="363" r="5" fill="rgb(53,136,80)" fill-opacity="0.75"/>
<line x1="751" y1="394" x2="751" y2="463" stroke="rgb(19,163,80)" stroke-width="1" stroke-opacity="0.5"/>
<circle cx="751" cy="428" r="5" fill="rgb(19,163,80)" fill-opacity="0.75"/>
<line x1="403" y1="336" x2="403" y2="438" stroke="rgb(41,146,80)" stroke-width="1" stroke-opacity="0.5"/>
<circle cx="403" cy="387" r="5" fill="rgb(41,146,80)" fill-opacity="0.75"/>
<line x1="448" y1="297" x2="448" y2="465" stroke="rgb(44,143,80)" stroke-width="1" stroke-opacity="0.5"/>
<circle cx="448" cy="381" r="5" fill="rgb(44,143,80)" fill-opacity="0.75"/>
<line x1="205" y1="235" x2="205" y2="408" stroke="rgb(75,118,80)" stroke-width="1" stroke-opacity="0.5"/>
<circle cx="205" cy="322" r="5" fill="rgb(75,118,80)" fill-opacity="0.75"/>
<line x1="205" y1="347" x2="205" y2="449" stroke="rgb(35,151,80)" stroke-width="1" stroke-opacity="0.5"/>
<circle cx="205" cy="398" r="5" fill="rgb(35,151,80)" fill-opacity="0.75"/>
<line x1="446" y1="325" x2="446" y2="453" stroke="rgb(39,147,80)" stroke-width="1" stroke-opacity="0.5"/>
<circle cx="446" cy="389" r="5" fill="rgb(39,147,80)" fill-opacity="0.75"/>
<line x1="696" y1="417" x2="696" y2="474" stroke="rgb(10,171,80)" stroke-width="1" stroke-opacity="0.5"/>
<circle cx="696" cy="446" r="5" fill="rgb(10,171,80)" fill-opacity="0.75"/>
<line x1="623" y1="316" x2="623" y2="440" stroke="rgb(45,142,80)" stroke-width="1" stroke-opacity="0.5"/>
<circle cx="623" cy="378" r="5" fill="rgb(45,142,80)" fill-opacity="0.75"/>
<line x1="642" y1="363" x2="642" y2="474" stroke="rgb(24,160,80)" stroke-width="1" stroke-opacity="0.5"/>
<circle cx="642" cy="419" r="5" fill="rgb(24,160,80)" fill-opacity="0.75"/>
<line x1="761" y1="366" x2="761" y2="451" stroke="rgb(29,155,80)" stroke-width="1" stroke-opacity="0.5"/>
<circle cx="761" cy="408" r="5" fill="rgb(29,155,80)" fill-opacity="0.75"/>
<line x1="303" y1="277" x2="303" y2="436" stroke="rgb(57,133,80)" stroke-width="1" stroke-opacity="0.5"/>
<circle cx="303" cy="357" r="5" fill="rgb(57,133,80)" fill-opacity="0.75"/>
<line x1="269" y1="149" x2="269" y2="541" stroke="rgb(62,128,80)" stroke-width="1" stroke-opacity="0.5"/>
<circle cx="269" cy="345" r="5" fill="rgb(62,128,80)" fill-opacity="0.75"/>
<line x1="286" y1="266" x2="286" y2="450" stroke="rgb(56,134,80)" stroke-width="1" stroke-opacity="0.5"/>
<circle cx="286" cy="358" r="5" fill="rgb(56,134,80)" fill-opacity="0.75"/>
<line x1="350" y1="331" x2="350" y2="446" stroke="rgb(40,146,80)" stroke-width="1" stroke-opacity="0.5"/>
<circle cx="350" cy="388" r="5" fill="rgb(40,146,80)" fill-opacity="0.75"/>
<line x1="405" y1="264" x2="405" y2="425" stroke="rgb(63,128,80)" stroke-width="1" stroke-opacity="0.5"/>
<circle cx="405" cy="345" r="5" fill="rgb(63,128,80)" fill-opacity="0.75"/>
<line x1="240" y1="298" x2="240" y2="451" stroke="rgb(47,140,80)" stroke-width="1" stroke-opacity="0.5"/>
<circle cx="240" cy="374" r="5" fill="rgb(47,140,80)" fill-opacity="0.75"/>
<line x1="489" y1="330" x2="489" y2="402" stroke="rgb(52,137,80)" stroke-width="1" stroke-opacity="0.5"/>
<circle cx="489" cy="366" r="5" fill="rgb(52,137,80)" fill-opacity="0.75"/>
<line x1="720" y1="366" x2="720" y2="478" stroke="rgb(22,161,80)" stroke-width="1" stroke-opacity="0.5"/>
<circle cx="720" cy="422" r="5" fill="rgb(22,161,80)" fill-opacity="0.75"/>
<line x1="492" y1="359" x2="492" y2="429" stroke="rgb(37,149,80)" stroke-width="1" stroke-opacity="0.5"/>
<circle cx="492" cy="394" r="5" fill="rgb(37,149,80)" fill-opacity="0.75"/>
<line x1="516" y1="258" x2="516" y2="437" stroke="rgb(61,129,80)" stroke-width="1" stroke-opacity="0.5"/>
<circle cx="516" cy="348" r="5" fill="rgb(61,129,80)" fill-opacity="0.75"/>
<line x1="266" y1="385" x2="266" y2="427" stroke="rgb(31,154,80)" stroke-width="1" stroke-opacity="0.5"/>
<circle cx="266" cy="406" r="5" fill="rgb(31,154,80)" fill-opacity="0.75"/>
<line x1="331" y1="111" x2="331" y2="505" stroke="rgb(82,112,80)" stroke-width="1" stroke-opacity="0.5"/>
<circle cx="331" cy="309" r="5" fill="rgb(82,112,80)" fill-opacity="0.75"/>
<line x1="479" y1="302" x2="479" y2="417" stroke="rgb(55,134,80)" stroke-width="1" stroke-opacity="0.5"/>
<circle cx="479" cy="359" r="5" fill="rgb(55,134,80)" fill-opacity="0.75"/>
<line x1="568" y1="405" x2="568" y2="433" stroke="rgb(24,160,80)" stroke-width="1" stroke-opacity="0.5"/>
<circle cx="568" cy="419" r="5" fill="rgb(24,160,80)" fill-opacity="0.75"/>
<line x1="515" y1="270" x2="515" y2="449" stroke="rgb(55,134,80)" stroke-width="1" stroke-opacity="0.5"/>
<circle cx="515" cy="360" r="5" fill="rgb(55,134,80)" fill-opacity="0.75"/>
<line x1="534" y1="350" x2="534" y2="453" stroke="rgb(33,152,80)" stroke-width="1" stroke-opacity="0.5"/>
<circle cx="534" cy="402" r="5" fill="rgb(33,152,80)" fill-opacity="0.75"/>
<line x1="350" y1="300" x2="350" y2="439" stroke="rgb(50,138,80)" stroke-width="1" stroke-opacity="0.5"/>
<circle cx="350" cy="370" r="5" fill="rgb(50,138,80)" fill-opacity="0.75"/>
<line x1="732" y1="256" x2="732" y2="394" stroke="rgb(73,119,80)" stroke-width="1" stroke-opacity="0.5"/>
<circle cx="732" cy="325" r="5" fill="rgb(73,119,80)" fill-opacity="0.75"/>
<line x1="537" y1="360" x2="537" y2="438" stroke="rgb(34,151,80)" stroke-width="1" stroke-opacity="0.5"/>
<circle cx="537" cy="399" r="5" fill="rgb(34,151,80)" fill-opacity="0.75"/>
<line x1="289" y1="302" x2="289" y2="423" stroke="rgb(53,135,80)" stroke-width="1" stroke-opacity="0.5"/>
<circle cx="289" cy="363" r="5" fill="rgb(53,135,80)" fill-opacity="0.75"/>
<line x1="634" y1="312" x2="634" y2="470" stroke="rgb(38,148,80)" stroke-width="1" stroke-opacity="0.5"/>
<circle cx="634" cy="391" r="5" fill="rgb(38,148,80)" fill-opacity="0.75"/>
<line x1="237" y1="332" x2="237" y2="429" stroke="rgb(44,143,80)" stroke-width="1" stroke-opacity="0.5"/>
<circle cx="237" cy="381" r="5" fill="rgb(44,143,80)" fill-opacity="0.75"/>
<line x1="112" y1="310" x2="112" y2="430" stroke="rgb(50,139,80)" stroke-width="1" stroke-opacity="0.5"/>
<circle cx="112" cy="370" r="5" fill="rgb(50,139,80)" fill-opacity="0.75"/>
<line x1="244" y1="270" x2="244" y2="426" stroke="rgb(61,129,80)" stroke-width="1" stroke-opacity="0.5"/>
<circle cx="244" cy="348" r="5" fill="rgb(61,129,80)" fill-opacity="0.75"/>
<line x1="209" y1="207" x2="209" y2="324" stroke="rgb(104,94,80)" stroke-width="1" stroke-opacity="0.5"/>
<circle cx="209" cy="265" r="5" fill="rgb(104,94,80)" fill-opacity="0.75"/>
<line x1="263" y1="397" x2="263" y2="433" stroke="rgb(26,158,80)" stroke-width="1" stroke-opacity="0.5"/>
<circle cx="263" cy="415" r="5" fill="rgb(26,158,80)" fill-opacity="0.75"/>
<line x1="703" y1="284" x2="703" y2="400" stroke="rgb(64,126,80)" stroke-width="1" stroke-opacity="0.5"/>
<circle cx="703" cy="342" r="5" fill="rgb(64,126,80)" fill-opacity="0.75"/>
<line x1="733" y1="392" x2="733" y2="469" stroke="rgb(18,165,80)" stroke-width="1" stroke-opacity="0.5"/>
<circle cx="733" cy="431" r="5" fill="rgb(18,165,80)" fill-opacity="0.75"/>
<line x1="790" y1="202" x2="790" y2="288" stroke="rgb(115,85,80)" stroke-width="1" stroke-opacity="0.5"/>
<circle cx="790" cy="245" r="5" fill="rgb(115,85,80)" fill-opacity="0.75"/>
<line x1="227" y1="316" x2="227" y2="427" stroke="rgb(49,139,80)" stroke-width="1" stroke-opacity="0.5"/>
<circle cx="227" cy="372" r="5" fill="rgb(49,139,80)" fill-opacity="0.75"/>
<line x1="355" y1="353" x2="355" y2="434" stroke="rgb(37,149,80)" stroke-width="1" stroke-opacity="0.5"/>
<circle cx="355" cy="394" r="5" fill="rgb(37,149,80)" fill-opacity="0.75"/>
<line x1="493" y1="283" x2="493" y2="442" stroke="rgb(53,135,80)" stroke-width="1" stroke-opacity="0.5"/>
<circle cx="493" cy="363" r="5" fill="rgb(53,135,80)" fill-opacity="0.75"/>
<line x1="308" y1="352" x2="308" y2="410" stroke="rgb(44,143,80)" stroke-width="1" stroke-opacity="0.5"/>
<circle cx="308" cy="381" r="5" fill="rgb(44,143,80)" fill-opacity="0.75"/>
<line x1="385" y1="301" x2="385" y2="457" stroke="rgb(45,142,80)" stroke-width="1" stroke-opacity="0.5"/>
<circle cx="385" cy="379" r="5" fill="rgb(45,142,80)" fill-opacity="0.75"/>
<line x1="786" y1="417" x2="786" y2="475" stroke="rgb(9,171,80)" stroke-width="1" stroke-opacity="0.5"/>
<circle cx="786" cy="446" r="5" fill="rgb(9,171,80)" fill-opacity="0.75"/>
<line x1="213" y1="98" x2="213" y2="491" stroke="rgb(89,106,80)" stroke-width="1" stroke-opacity="0.5"/>
<circle cx="213" cy="295" r="5" fill="rgb(89,106,80)" fill-opacity="0.75"/>
<line x1="423" y1="377" x2="423" y2="444" stroke="rgb(28,156,80)" stroke-width="1" stroke-opacity="0.5"/>
<circle cx="423" cy="411" r="5" fill="rgb(28,156,80)" fill-opacity="0.75"/>
<line x1="689" y1="125" x2="689" y2="512" stroke="rgb(76,117,80)" stroke-width="1" stroke-opacity="0.5"/>
<circle cx="689" cy="319" r="5" fill="rgb(76,117,80)" fill-opacity="0.75"/>
<line x1="667" y1="391" x2="667" y2="467" stroke="rgb(18,164,80)" stroke-width="1" stroke-opacity="0.5"/>
<circle cx="667" cy="429" r="5" fill="rgb(18,164,80)" fill-opacity="0.75"/>
<line x1="155" y1="309" x2="155" y2="440" stroke="rgb(47,140,80)" stroke-width="1" stroke-opacity="0.5"/>
<circle cx="155" cy="374" r="5" fill="rgb(47,140,80)" fill-opacity="0.75"/>
<line x1="124" y1="120" x2="124" y2="485" stroke="rgb(85,110,80)" stroke-width="1" stroke-opacity="0.5"/>
<circle cx="124" cy="303" r="5" fill="rgb(85,110,80)" fill-opacity="0.75"/>
<line x1="171" y1="326" x2="171" y2="417" stroke="rgb(49,139,80)" stroke-width="1" stroke-opacity="0.5"/>
<circle cx="171" cy="372" r="5" fill="rgb(49,139,80)" fill-opacity="0.75"/>
<line x1="348" y1="352" x2="348" y2="449" stroke="rgb(34,152,80)" stroke-width="1" stroke-opacity="0.5"/>
<circle cx="348" cy="401" r="5" fill="rgb(34,152,80)" fill-opacity="0.75"/>
<line x1="199" y1="-210" x2="199" y2="340" stroke="rgb(210,8,80)" stroke-width="1" stroke-opacity="0.5"/>
<circle cx="199" cy="65" r="5" fill="rgb(210,8,80)" fill-opacity="0.75"/>
<line x1="587" y1="236" x2="587" y2="393" stroke="rgb(79,115,80)" stroke-width="1" stroke-opacity="0.5"/>
<circle cx="587" cy="315" r="5" fill="rgb(79,115,80)" fill-opacity="0.75"/>
<line x1="200" y1="272" x2="200" y2="425" stroke="rgb(61,129,80)" stroke-width="1" stroke-opacity="0.5"/>
<circle cx="200" cy="349" r="5" fill="rgb(61,129,80)" fill-opacity="0.75"/>
<line x1="327" y1="230" x2="327" y2="402" stroke="rgb(78,115,80)" stroke-width="1" stroke-opacity="0.5"/>
<circle cx="327" cy="316" r="5" fill="rgb(78,115,80)" fill-opacity="0.75"/>
<line x1="601" y1="328" x2="601" y2="431" stroke="rgb(44,143,80)" stroke-width="1" stroke-opacity="0.5"/>
<circle cx="601" cy="380" r="5" fill="rgb(44,143,80)" fill-opacity="0.75"/>
<line x1="633" y1="359" x2="633" y2="438" stroke="rgb(35,151,80)" stroke-width="1" stroke-opacity="0.5"/>
<circle cx="633" cy="399" r="5" fill="rgb(35,151,80)" fill-opacity="0.75"/>
<line x1="606" y1="296" x2="606" y2="440" stroke="rgb(51,138,80)" stroke-width="1" stroke-opacity="0.5"/>
<circle cx="606" cy="368" r="5" fill="rgb(51,138,80)" fill-opacity="0.75"/>
<line x1="335" y1="307" x2="335" y2="405" stroke="rgb(57,133,80)" stroke-width="1" stroke-opacity="0.5"/>
<circle cx="335" cy="356" r="5" fill="rgb(57,133,80)" fill-opacity="0.75"/>
<line x1="658" y1="281" x2="658" y2="411" stroke="rgb(62,128,80)" stroke-width="1" stroke-opacity="0.5"/>
<circle cx="658" cy="346" r="5" fill="rgb(62,128,80)" fill-opacity="0.75"/>
<line x1="525" y1="171" x2="525" y2="443" stroke="rgb(83,111,80)" stroke-width="1" stroke-opacity="0.5"/>
<circle cx="525" cy="307" r="5" fill="rgb(83,111,80)" fill-opacity="0.75"/>
<line x1="788" y1="-25" x2="788" y2="605" stroke="rgb(91,105,80)" stroke-width="1" stroke-opacity="0.5"/>
<circle cx="788" cy="291" r="5" fill="rgb(91,105,80)" fill-opacity="0.75"/>
<line x1="404" y1="386" x2="404" y2="434" stroke="rgb(29,156,80)" stroke-width="1" stroke-opacity="0.5"/>
<circle cx="404" cy="410" r="5" fill="rgb(29,156,80)" fill-opacity="0.75"/>
<line x1="509" y1="276" x2="509" y2="465" stroke="rgb(49,139,80)" stroke-width="1" stroke-opacity="0.5"/>
<circle cx="509" cy="371" r="5" fill="rgb(49,139,80)" fill-opacity="0.75"/>
<line x1="524" y1="326" x2="524" y2="450" stroke="rgb(40,146,80)" stroke-width="1" stroke-opacity="0.5"/>
<circle cx="524" cy="388" r="5" fill="rgb(40,146,80)" fill-opacity="0.75"/>
<line x1="521" y1="106" x2="521" y2="535" stroke="rgb(75,118,80)" stroke-width="1" stroke-opacity="0.5"/>
<circle cx="521" cy="321" r="5" fill="rgb(75,118,80)" fill-opacity="0.75"/>
<line x1="163" y1="318" x2="163" y2="386" stroke="rgb(59,131,80)" stroke-width="1" stroke-opacity="0.5"/>
<circle cx="163" cy="352" r="5" fill="rgb(59,131,80)" fill-opacity="0.75"/>
<line x1="367" y1="319" x2="367" y2="404" stroke="rgb(54,135,80)" stroke-width="1" stroke-opacity="0.5"/>
<circle cx="367" cy="361" r="5" fill="rgb(54,135,80)" fill-opacity="0.75"/>
<line x1="673" y1="367" x2="673" y2="469" stroke="rgb(24,159,80)" stroke-width="1" stroke-opacity="0.5"/>
<circle cx="673" cy="419" r="5" fill="rgb(24,159,80)" fill-opacity="0.75"/>
<line x1="218" y1="341" x2="218" y2="438" stroke="rgb(39,147,80)" stroke-width="1" stroke-opacity="0.5"/>
<circle cx="218" cy="390" r="5" fill="rgb(39,147,80)" fill-opacity="0.75"/>
<line x1="535" y1="343" x2="535" y2="438" stroke="rgb(39,147,80)" stroke-width="1" stroke-opacity="0.5"/>
<circle cx="535" cy="391" r="5" fill="rgb(39,147,80)" fill-opacity="0.75"/>
<line x1="504" y1="200" x2="504" y2="420" stroke="rgb(81,113,80)" stroke-width="1" stroke-opacity="0.5"/>
<circle cx="504" cy="310" r="5" fill="rgb(81,113,80)" fill-opacity="0.75"/>
<line x1="238" y1="303" x2="238" y2="416" stroke="rgb(55,134,80)" stroke-width="1" stroke-opacity="0.5"/>
<circle cx="238" cy="360" r="5" fill="rgb(55,134,80)" fill-opacity="0.75"/>
<line x1="696" y1="301" x2="696" y2="457" stroke="rgb(45,142,80)" stroke-width="1" stroke-opacity="0.5"/>
<circle cx="696" cy="379" r="5" fill="rgb(45,142,80)" fill-opacity="0.75"/>
<line x1="292" y1="365" x2="292" y2="427" stroke="rgb(36,150,80)" stroke-width="1" stroke-opacity="0.5"/>
<circle cx="292" cy="396" r="5" fill="rgb(36,150,80)" fill-opacity="0.75"/>
<line x1="428" y1="250" x2="428" y2="458" stroke="rgb(58,132,80)" stroke-width="1" stroke-opacity="0.5"/>
<circle cx="428" cy="354" r="5" fill="rgb(58,132,80)" fill-opacity="0.75"/>
<line x1="550" y1="362" x2="550" y2="450" stroke="rgb(31,154,80)" stroke-width="1" stroke-opacity="0.5"/>
<circle cx="550" cy="406" r="5" fill="rgb(31,154,80)" fill-opacity="0.75"/>
<line x1="162" y1="138" x2="162" y2="394" stroke="rgb(104,94,80)" stroke-width="1" stroke-opacity="0.5"/>
<circle cx="162" cy="266" r="5" fill="rgb(104,94,80)" fill-opacity="0.75"/>
<line x1="402" y1="327" x2="402" y2="444" stroke="rgb(41,145,80)" stroke-width="1" stroke-opacity="0.5"/>
<circle cx="402" cy="386" r="5" fill="rgb(41,145,80)" fill-opacity="0.75"/>
<circle cx="786" cy="446" r="8" fill="none" stroke="gold" stroke-width="2.5"/>
<text x="796" y="440" font-size="10" fill="#333" font-family="sans-serif">best</text>
<text x="823" y="57" text-anchor="end" font-size="9" fill="#888" font-family="sans-serif">colour: blue=best, red=worst</text>
</svg>
