<?xml version="1.0"?>
<svg xmlns="http://www.w3.org/2000/svg" width="850" height="520">
<rect width="850" height="520" fill="#fafafa"/>
<text x="425" y="28" text-anchor="middle" font-size="15" font-weight="bold" font-family="sans-serif">GRASP: iterations vs avg (budget=100k)</text>
<line x1="75" y1="465" x2="825" y2="465" stroke="#ddd" stroke-width="1"/>
<text x="71" y="469" text-anchor="end" font-size="10" font-family="sans-serif">1553</text>
<line x1="75" y1="381" x2="825" y2="381" stroke="#ddd" stroke-width="1"/>
<text x="71" y="385" text-anchor="end" font-size="10" font-family="sans-serif">6782</text>
<line x1="75" y1="297" x2="825" y2="297" stroke="#ddd" stroke-width="1"/>
<text x="71" y="301" text-anchor="end" font-size="10" font-family="sans-serif">12010</text>
<line x1="75" y1="213" x2="825" y2="213" stroke="#ddd" stroke-width="1"/>
<text x="71" y="217" text-anchor="end" font-size="10" font-family="sans-serif">17239</text>
<line x1="75" y1="129" x2="825" y2="129" stroke="#ddd" stroke-width="1"/>
<text x="71" y="133" text-anchor="end" font-size="10" font-family="sans-serif">22468</text>
<line x1="75" y1="45" x2="825" y2="45" stroke="#ddd" stroke-width="1"/>
<text x="71" y="49" text-anchor="end" font-size="10" font-family="sans-serif">27696</text>
<line x1="75" y1="465" x2="75" y2="469" stroke="#888"/>
<text x="75" y="481" text-anchor="middle" font-size="9" font-family="sans-serif">-42.45</text>
<line x1="224" y1="465" x2="224" y2="469" stroke="#888"/>
<text x="224" y="481" text-anchor="middle" font-size="9" font-family="sans-serif">175.13</text>
<line x1="375" y1="465" x2="375" y2="469" stroke="#888"/>
<text x="375" y="481" text-anchor="middle" font-size="9" font-family="sans-serif">392.71</text>
<line x1="525" y1="465" x2="525" y2="469" stroke="#888"/>
<text x="525" y="481" text-anchor="middle" font-size="9" font-family="sans-serif">610.29</text>
<line x1="675" y1="465" x2="675" y2="469" stroke="#888"/>
<text x="675" y="481" text-anchor="middle" font-size="9" font-family="sans-serif">827.87</text>
<line x1="825" y1="465" x2="825" y2="469" stroke="#888"/>
<text x="825" y="481" text-anchor="middle" font-size="9" font-family="sans-serif">1045.45</text>
<line x1="75" y1="45" x2="75" y2="465" stroke="#333" stroke-width="1.5"/>
<line x1="75" y1="465" x2="825" y2="465" stroke="#333" stroke-width="1.5"/>
<text x="450" y="515" text-anchor="middle" font-size="12" font-family="sans-serif">iterations</text>
<text transform="rotate(-90,18,255)" x="18" y="259" text-anchor="middle" font-size="11" font-family="sans-serif">Objective value</text>
<line x1="523" y1="395" x2="523" y2="404" stroke="rgb(34,151,80)" stroke-width="1" stroke-opacity="0.5"/>
<circle cx="523" cy="399" r="5" fill="rgb(34,151,80)" fill-opacity="0.75"/>
<line x1="713" y1="356" x2="713" y2="368" stroke="rgb(54,135,80)" stroke-width="1" stroke-opacity="0.5"/>
<circle cx="713" cy="362" r="5" fill="rgb(54,135,80)" fill-opacity="0.75"/>
<line x1="637" y1="367" x2="637" y2="377" stroke="rgb(48,139,80)" stroke-width="1" stroke-opacity="0.5"/>
<circle cx="637" cy="372" r="5" fill="rgb(48,139,80)" fill-opacity="0.75"/>
<line x1="651" y1="265" x2="651" y2="277" stroke="rgb(101,96,80)" stroke-width="1" stroke-opacity="0.5"/>
<circle cx="651" cy="271" r="5" fill="rgb(101,96,80)" fill-opacity="0.75"/>
<line x1="377" y1="61" x2="377" y2="72" stroke="rgb(209,8,80)" stroke-width="1" stroke-opacity="0.5"/>
<circle cx="377" cy="66" r="5" fill="rgb(209,8,80)" fill-opacity="0.75"/>
<line x1="195" y1="380" x2="195" y2="391" stroke="rgb(41,145,80)" stroke-width="1" stroke-opacity="0.5"/>
<circle cx="195" cy="385" r="5" fill="rgb(41,145,80)" fill-opacity="0.75"/>
<line x1="790" y1="260" x2="790" y2="273" stroke="rgb(104,94,80)" stroke-width="1" stroke-opacity="0.5"/>
<circle cx="790" cy="267" r="5" fill="rgb(104,94,80)" fill-opacity="0.75"/>
<line x1="634" y1="170" x2="634" y2="183" stroke="rgb(151,56,80)" stroke-width="1" stroke-opacity="0.5"/>
<circle cx="634" cy="177" r="5" fill="rgb(151,56,80)" fill-opacity="0.75"/>
<line x1="222" y1="386" x2="222" y2="396" stroke="rgb(38,148,80)" stroke-width="1" stroke-opacity="0.5"/>
<circle cx="222" cy="391" r="5" fill="rgb(38,148,80)" fill-opacity="0.75"/>
<line x1="503" y1="186" x2="503" y2="197" stroke="rgb(143,62,80)" stroke-width="1" stroke-opacity="0.5"/>
<circle cx="503" cy="192" r="5" fill="rgb(143,62,80)" fill-opacity="0.75"/>
<line x1="351" y1="139" x2="351" y2="150" stroke="rgb(168,42,80)" stroke-width="1" stroke-opacity="0.5"/>
<circle cx="351" cy="144" r="5" fill="rgb(168,42,80)" fill-opacity="0.75"/>
<line x1="248" y1="341" x2="248" y2="352" stroke="rgb(62,128,80)" stroke-width="1" stroke-opacity="0.5"/>
<circle cx="248" cy="346" r="5" fill="rgb(62,128,80)" fill-opacity="0.75"/>
<line x1="164" y1="442" x2="164" y2="451" stroke="rgb(10,171,80)" stroke-width="1" stroke-opacity="0.5"/>
<circle cx="164" cy="446" r="5" fill="rgb(10,171,80)" fill-opacity="0.75"/>
<line x1="775" y1="352" x2="775" y2="365" stroke="rgb(56,134,80)" stroke-width="1" stroke-opacity="0.5"/>
<circle cx="775" cy="358" r="5" fill="rgb(56,134,80)" fill-opacity="0.75"/>
<line x1="341" y1="273" x2="341" y2="283" stroke="rgb(98,99,80)" stroke-width="1" stroke-opacity="0.5"/>
<circle cx="341" cy="278" r="5" fill="rgb(98,99,80)" fill-opacity="0.75"/>
<line x1="299" y1="200" x2="299" y2="210" stroke="rgb(136,68,80)" stroke-width="1" stroke-opacity="0.5"/>
<circle cx="299" cy="205" r="5" fill="rgb(136,68,80)" fill-opacity="0.75"/>
<line x1="302" y1="69" x2="302" y2="79" stroke="rgb(204,12,80)" stroke-width="1" stroke-opacity="0.5"/>
<circle cx="302" cy="74" r="5" fill="rgb(204,12,80)" fill-opacity="0.75"/>
<line x1="215" y1="291" x2="215" y2="301" stroke="rgb(88,107,80)" stroke-width="1" stroke-opacity="0.5"/>
<circle cx="215" cy="296" r="5" fill="rgb(88,107,80)" fill-opacity="0.75"/>
<line x1="708" y1="336" x2="708" y2="348" stroke="rgb(64,127,80)" stroke-width="1" stroke-opacity="0.5"/>
<circle cx="708" cy="342" r="5" fill="rgb(64,127,80)" fill-opacity="0.75"/>
<line x1="190" y1="265" x2="190" y2="275" stroke="rgb(102,96,80)" stroke-width="1" stroke-opacity="0.5"/>
<circle cx="190" cy="270" r="5" fill="rgb(102,96,80)" fill-opacity="0.75"/>
<line x1="695" y1="176" x2="695" y2="188" stroke="rgb(148,58,80)" stroke-width="1" stroke-opacity="0.5"/>
<circle cx="695" cy="182" r="5" fill="rgb(148,58,80)" fill-opacity="0.75"/>
<line x1="234" y1="307" x2="234" y2="318" stroke="rgb(80,114,80)" stroke-width="1" stroke-opacity="0.5"/>
<circle cx="234" cy="312" r="5" fill="rgb(80,114,80)" fill-opacity="0.75"/>
<line x1="634" y1="291" x2="634" y2="304" stroke="rgb(88,107,80)" stroke-width="1" stroke-opacity="0.5"/>
<circle cx="634" cy="297" r="5" fill="rgb(88,107,80)" fill-opacity="0.75"/>
<line x1="418" y1="123" x2="418" y2="134" stroke="rgb(176,35,80)" stroke-width="1" stroke-opacity="0.5"/>
<circle cx="418" cy="128" r="5" fill="rgb(176,35,80)" fill-opacity="0.75"/>
<line x1="677" y1="312" x2="677" y2="325" stroke="rgb(77,116,80)" stroke-width="1" stroke-opacity="0.5"/>
<circle cx="677" cy="318" r="5" fill="rgb(77,116,80)" fill-opacity="0.75"/>
<line x1="564" y1="178" x2="564" y2="189" stroke="rgb(147,59,80)" stroke-width="1" stroke-opacity="0.5"/>
<circle cx="564" cy="184" r="5" fill="rgb(147,59,80)" fill-opacity="0.75"/>
<line x1="135" y1="411" x2="135" y2="421" stroke="rgb(25,158,80)" stroke-width="1" stroke-opacity="0.5"/>
<circle cx="135" cy="416" r="5" fill="rgb(25,158,80)" fill-opacity="0.75"/>
<line x1="264" y1="350" x2="264" y2="359" stroke="rgb(58,132,80)" stroke-width="1" stroke-opacity="0.5"/>
<circle cx="264" cy="354" r="5" fill="rgb(58,132,80)" fill-opacity="0.75"/>
<line x1="277" y1="375" x2="277" y2="385" stroke="rgb(44,143,80)" stroke-width="1" stroke-opacity="0.5"/>
<circle cx="277" cy="380" r="5" fill="rgb(44,143,80)" fill-opacity="0.75"/>
<line x1="517" y1="295" x2="517" y2="307" stroke="rgb(86,109,80)" stroke-width="1" stroke-opacity="0.5"/>
<circle cx="517" cy="301" r="5" fill="rgb(86,109,80)" fill-opacity="0.75"/>
<line x1="282" y1="435" x2="282" y2="444" stroke="rgb(13,168,80)" stroke-width="1" stroke-opacity="0.5"/>
<circle cx="282" cy="440" r="5" fill="rgb(13,168,80)" fill-opacity="0.75"/>
<line x1="177" y1="360" x2="177" y2="370" stroke="rgb(52,136,80)" stroke-width="1" stroke-opacity="0.5"/>
<circle cx="177" cy="365" r="5" fill="rgb(52,136,80)" fill-opacity="0.75"/>
<line x1="713" y1="161" x2="713" y2="174" stroke="rgb(156,52,80)" stroke-width="1" stroke-opacity="0.5"/>
<circle cx="713" cy="167" r="5" fill="rgb(156,52,80)" fill-opacity="0.75"/>
<line x1="625" y1="182" x2="625" y2="194" stroke="rgb(145,61,80)" stroke-width="1" stroke-opacity="0.5"/>
<circle cx="625" cy="188" r="5" fill="rgb(145,61,80)" fill-opacity="0.75"/>
<line x1="326" y1="134" x2="326" y2="145" stroke="rgb(170,40,80)" stroke-width="1" stroke-opacity="0.5"/>
<circle cx="326" cy="139" r="5" fill="rgb(170,40,80)" fill-opacity="0.75"/>
<line x1="675" y1="209" x2="675" y2="222" stroke="rgb(130,72,80)" stroke-width="1" stroke-opacity="0.5"/>
<circle cx="675" cy="215" r="5" fill="rgb(130,72,80)" fill-opacity="0.75"/>
<line x1="198" y1="411" x2="198" y2="421" stroke="rgb(26,158,80)" stroke-width="1" stroke-opacity="0.5"/>
<circle cx="198" cy="416" r="5" fill="rgb(26,158,80)" fill-opacity="0.75"/>
<line x1="452" y1="188" x2="452" y2="200" stroke="rgb(142,63,80)" stroke-width="1" stroke-opacity="0.5"/>
<circle cx="452" cy="194" r="5" fill="rgb(142,63,80)" fill-opacity="0.75"/>
<line x1="363" y1="190" x2="363" y2="200" stroke="rgb(141,64,80)" stroke-width="1" stroke-opacity="0.5"/>
<circle cx="363" cy="195" r="5" fill="rgb(141,64,80)" fill-opacity="0.75"/>
<line x1="589" y1="383" x2="589" y2="393" stroke="rgb(40,146,80)" stroke-width="1" stroke-opacity="0.5"/>
<circle cx="589" cy="388" r="5" fill="rgb(40,146,80)" fill-opacity="0.75"/>
<line x1="524" y1="192" x2="524" y2="204" stroke="rgb(139,65,80)" stroke-width="1" stroke-opacity="0.5"/>
<circle cx="524" cy="198" r="5" fill="rgb(139,65,80)" fill-opacity="0.75"/>
<line x1="415" y1="349" x2="415" y2="360" stroke="rgb(58,132,80)" stroke-width="1" stroke-opacity="0.5"/>
<circle cx="415" cy="355" r="5" fill="rgb(58,132,80)" fill-opacity="0.75"/>
<line x1="282" y1="331" x2="282" y2="342" stroke="rgb(67,124,80)" stroke-width="1" stroke-opacity="0.5"/>
<circle cx="282" cy="336" r="5" fill="rgb(67,124,80)" fill-opacity="0.75"/>
<line x1="653" y1="384" x2="653" y2="394" stroke="rgb(40,147,80)" stroke-width="1" stroke-opacity="0.5"/>
<circle cx="653" cy="389" r="5" fill="rgb(40,147,80)" fill-opacity="0.75"/>
<line x1="488" y1="334" x2="488" y2="345" stroke="rgb(65,126,80)" stroke-width="1" stroke-opacity="0.5"/>
<circle cx="488" cy="340" r="5" fill="rgb(65,126,80)" fill-opacity="0.75"/>
<line x1="717" y1="371" x2="717" y2="383" stroke="rgb(46,142,80)" stroke-width="1" stroke-opacity="0.5"/>
<circle cx="717" cy="377" r="5" fill="rgb(46,142,80)" fill-opacity="0.75"/>
<line x1="264" y1="352" x2="264" y2="362" stroke="rgb(56,133,80)" stroke-width="1" stroke-opacity="0.5"/>
<circle cx="264" cy="357" r="5" fill="rgb(56,133,80)" fill-opacity="0.75"/>
<line x1="435" y1="358" x2="435" y2="368" stroke="rgb(53,136,80)" stroke-width="1" stroke-opacity="0.5"/>
<circle cx="435" cy="363" r="5" fill="rgb(53,136,80)" fill-opacity="0.75"/>
<line x1="562" y1="331" x2="562" y2="343" stroke="rgb(67,125,80)" stroke-width="1" stroke-opacity="0.5"/>
<circle cx="562" cy="337" r="5" fill="rgb(67,125,80)" fill-opacity="0.75"/>
<line x1="177" y1="367" x2="177" y2="377" stroke="rgb(48,140,80)" stroke-width="1" stroke-opacity="0.5"/>
<circle cx="177" cy="372" r="5" fill="rgb(48,140,80)" fill-opacity="0.75"/>
<line x1="559" y1="259" x2="559" y2="271" stroke="rgb(104,94,80)" stroke-width="1" stroke-opacity="0.5"/>
<circle cx="559" cy="265" r="5" fill="rgb(104,94,80)" fill-opacity="0.75"/>
<line x1="255" y1="297" x2="255" y2="307" stroke="rgb(85,109,80)" stroke-width="1" stroke-opacity="0.5"/>
<circle cx="255" cy="302" r="5" fill="rgb(85,109,80)" fill-opacity="0.75"/>
<line x1="706" y1="184" x2="706" y2="197" stroke="rgb(144,62,80)" stroke-width="1" stroke-opacity="0.5"/>
<circle cx="706" cy="190" r="5" fill="rgb(144,62,80)" fill-opacity="0.75"/>
<line x1="528" y1="254" x2="528" y2="266" stroke="rgb(107,91,80)" stroke-width="1" stroke-opacity="0.5"/>
<circle cx="528" cy="260" r="5" fill="rgb(107,91,80)" fill-opacity="0.75"/>
<line x1="735" y1="242" x2="735" y2="254" stroke="rgb(113,86,80)" stroke-width="1" stroke-opacity="0.5"/>
<circle cx="735" cy="248" r="5" fill="rgb(113,86,80)" fill-opacity="0.75"/>
<line x1="268" y1="306" x2="268" y2="317" stroke="rgb(80,113,80)" stroke-width="1" stroke-opacity="0.5"/>
<circle cx="268" cy="311" r="5" fill="rgb(80,113,80)" fill-opacity="0.75"/>
<line x1="323" y1="394" x2="323" y2="403" stroke="rgb(35,151,80)" stroke-width="1" stroke-opacity="0.5"/>
<circle cx="323" cy="398" r="5" fill="rgb(35,151,80)" fill-opacity="0.75"/>
<line x1="173" y1="326" x2="173" y2="336" stroke="rgb(70,122,80)" stroke-width="1" stroke-opacity="0.5"/>
<circle cx="173" cy="331" r="5" fill="rgb(70,122,80)" fill-opacity="0.75"/>
<line x1="586" y1="301" x2="586" y2="313" stroke="rgb(82,112,80)" stroke-width="1" stroke-opacity="0.5"/>
<circle cx="586" cy="307" r="5" fill="rgb(82,112,80)" fill-opacity="0.75"/>
<line x1="562" y1="289" x2="562" y2="301" stroke="rgb(89,107,80)" stroke-width="1" stroke-opacity="0.5"/>
<circle cx="562" cy="295" r="5" fill="rgb(89,107,80)" fill-opacity="0.75"/>
<line x1="604" y1="197" x2="604" y2="209" stroke="rgb(137,67,80)" stroke-width="1" stroke-opacity="0.5"/>
<circle cx="604" cy="203" r="5" fill="rgb(137,67,80)" fill-opacity="0.75"/>
<line x1="770" y1="352" x2="770" y2="365" stroke="rgb(56,134,80)" stroke-width="1" stroke-opacity="0.5"/>
<circle cx="770" cy="358" r="5" fill="rgb(56,134,80)" fill-opacity="0.75"/>
<line x1="261" y1="338" x2="261" y2="349" stroke="rgb(63,127,80)" stroke-width="1" stroke-opacity="0.5"/>
<circle cx="261" cy="343" r="5" fill="rgb(63,127,80)" fill-opacity="0.75"/>
<line x1="489" y1="186" x2="489" y2="198" stroke="rgb(143,62,80)" stroke-width="1" stroke-opacity="0.5"/>
<circle cx="489" cy="192" r="5" fill="rgb(143,62,80)" fill-opacity="0.75"/>
<line x1="721" y1="201" x2="721" y2="214" stroke="rgb(135,69,80)" stroke-width="1" stroke-opacity="0.5"/>
<circle cx="721" cy="207" r="5" fill="rgb(135,69,80)" fill-opacity="0.75"/>
<line x1="240" y1="211" x2="240" y2="221" stroke="rgb(130,73,80)" stroke-width="1" stroke-opacity="0.5"/>
<circle cx="240" cy="216" r="5" fill="rgb(130,73,80)" fill-opacity="0.75"/>
<line x1="300" y1="351" x2="300" y2="362" stroke="rgb(57,133,80)" stroke-width="1" stroke-opacity="0.5"/>
<circle cx="300" cy="357" r="5" fill="rgb(57,133,80)" fill-opacity="0.75"/>
<line x1="693" y1="235" x2="693" y2="247" stroke="rgb(117,83,80)" stroke-width="1" stroke-opacity="0.5"/>
<circle cx="693" cy="241" r="5" fill="rgb(117,83,80)" fill-opacity="0.75"/>
<line x1="465" y1="258" x2="465" y2="270" stroke="rgb(105,93,80)" stroke-width="1" stroke-opacity="0.5"/>
<circle cx="465" cy="264" r="5" fill="rgb(105,93,80)" fill-opacity="0.75"/>
<line x1="331" y1="351" x2="331" y2="362" stroke="rgb(57,133,80)" stroke-width="1" stroke-opacity="0.5"/>
<circle cx="331" cy="357" r="5" fill="rgb(57,133,80)" fill-opacity="0.75"/>
<line x1="424" y1="368" x2="424" y2="378" stroke="rgb(48,140,80)" stroke-width="1" stroke-opacity="0.5"/>
<circle cx="424" cy="373" r="5" fill="rgb(48,140,80)" fill-opacity="0.75"/>
<line x1="354" y1="215" x2="354" y2="226" stroke="rgb(128,74,80)" stroke-width="1" stroke-opacity="0.5"/>
<circle cx="354" cy="220" r="5" fill="rgb(128,74,80)" fill-opacity="0.75"/>
<line x1="762" y1="212" x2="762" y2="224" stroke="rgb(129,73,80)" stroke-width="1" stroke-opacity="0.5"/>
<circle cx="762" cy="218" r="5" fill="rgb(129,73,80)" fill-opacity="0.75"/>
<line x1="475" y1="270" x2="475" y2="282" stroke="rgb(99,98,80)" stroke-width="1" stroke-opacity="0.5"/>
<circle cx="475" cy="276" r="5" fill="rgb(99,98,80)" fill-opacity="0.75"/>
<line x1="439" y1="306" x2="439" y2="318" stroke="rgb(80,114,80)" stroke-width="1" stroke-opacity="0.5"/>
<circle cx="439" cy="312" r="5" fill="rgb(80,114,80)" fill-opacity="0.75"/>
<line x1="309" y1="350" x2="309" y2="361" stroke="rgb(57,132,80)" stroke-width="1" stroke-opacity="0.5"/>
<circle cx="309" cy="355" r="5" fill="rgb(57,132,80)" fill-opacity="0.75"/>
<line x1="632" y1="253" x2="632" y2="265" stroke="rgb(108,91,80)" stroke-width="1" stroke-opacity="0.5"/>
<circle cx="632" cy="259" r="5" fill="rgb(108,91,80)" fill-opacity="0.75"/>
<line x1="631" y1="178" x2="631" y2="190" stroke="rgb(147,59,80)" stroke-width="1" stroke-opacity="0.5"/>
<circle cx="631" cy="184" r="5" fill="rgb(147,59,80)" fill-opacity="0.75"/>
<line x1="633" y1="122" x2="633" y2="135" stroke="rgb(176,35,80)" stroke-width="1" stroke-opacity="0.5"/>
<circle cx="633" cy="129" r="5" fill="rgb(176,35,80)" fill-opacity="0.75"/>
<line x1="235" y1="320" x2="235" y2="330" stroke="rgb(73,119,80)" stroke-width="1" stroke-opacity="0.5"/>
<circle cx="235" cy="325" r="5" fill="rgb(73,119,80)" fill-opacity="0.75"/>
<line x1="545" y1="59" x2="545" y2="71" stroke="rgb(209,8,80)" stroke-width="1" stroke-opacity="0.5"/>
<circle cx="545" cy="65" r="5" fill="rgb(209,8,80)" fill-opacity="0.75"/>
<line x1="309" y1="250" x2="309" y2="261" stroke="rgb(110,89,80)" stroke-width="1" stroke-opacity="0.5"/>
<circle cx="309" cy="255" r="5" fill="rgb(110,89,80)" fill-opacity="0.75"/>
<line x1="497" y1="144" x2="497" y2="156" stroke="rgb(165,44,80)" stroke-width="1" stroke-opacity="0.5"/>
<circle cx="497" cy="150" r="5" fill="rgb(165,44,80)" fill-opacity="0.75"/>
<line x1="640" y1="262" x2="640" y2="274" stroke="rgb(103,95,80)" stroke-width="1" stroke-opacity="0.5"/>
<circle cx="640" cy="268" r="5" fill="rgb(103,95,80)" fill-opacity="0.75"/>
<line x1="584" y1="302" x2="584" y2="314" stroke="rgb(82,112,80)" stroke-width="1" stroke-opacity="0.5"/>
<circle cx="584" cy="308" r="5" fill="rgb(82,112,80)" fill-opacity="0.75"/>
<line x1="461" y1="361" x2="461" y2="371" stroke="rgb(52,137,80)" stroke-width="1" stroke-opacity="0.5"/>
<circle cx="461" cy="366" r="5" fill="rgb(52,137,80)" fill-opacity="0.75"/>
<line x1="488" y1="259" x2="488" y2="271" stroke="rgb(104,94,80)" stroke-width="1" stroke-opacity="0.5"/>
<circle cx="488" cy="265" r="5" fill="rgb(104,94,80)" fill-opacity="0.75"/>
<line x1="533" y1="396" x2="533" y2="406" stroke="rgb(33,152,80)" stroke-width="1" stroke-opacity="0.5"/>
<circle cx="533" cy="401" r="5" fill="rgb(33,152,80)" fill-opacity="0.75"/>
<line x1="599" y1="183" x2="599" y2="195" stroke="rgb(144,61,80)" stroke-width="1" stroke-opacity="0.5"/>
<circle cx="599" cy="189" r="5" fill="rgb(144,61,80)" fill-opacity="0.75"/>
<line x1="739" y1="272" x2="739" y2="284" stroke="rgb(98,99,80)" stroke-width="1" stroke-opacity="0.5"/>
<circle cx="739" cy="278" r="5" fill="rgb(98,99,80)" fill-opacity="0.75"/>
<line x1="573" y1="239" x2="573" y2="251" stroke="rgb(115,85,80)" stroke-width="1" stroke-opacity="0.5"/>
<circle cx="573" cy="245" r="5" fill="rgb(115,85,80)" fill-opacity="0.75"/>
<line x1="472" y1="262" x2="472" y2="273" stroke="rgb(103,95,80)" stroke-width="1" stroke-opacity="0.5"/>
<circle cx="472" cy="267" r="5" fill="rgb(103,95,80)" fill-opacity="0.75"/>
<line x1="518" y1="364" x2="518" y2="374" stroke="rgb(50,138,80)" stroke-width="1" stroke-opacity="0.5"/>
<circle cx="518" cy="369" r="5" fill="rgb(50,138,80)" fill-opacity="0.75"/>
<line x1="663" y1="217" x2="663" y2="230" stroke="rgb(126,76,80)" stroke-width="1" stroke-opacity="0.5"/>
<circle cx="663" cy="223" r="5" fill="rgb(126,76,80)" fill-opacity="0.75"/>
<line x1="628" y1="348" x2="628" y2="360" stroke="rgb(58,132,80)" stroke-width="1" stroke-opacity="0.5"/>
<circle cx="628" cy="354" r="5" fill="rgb(58,132,80)" fill-opacity="0.75"/>
<line x1="109" y1="337" x2="109" y2="340" stroke="rgb(66,125,80)" stroke-width="1" stroke-opacity="0.5"/>
<circle cx="109" cy="339" r="5" fill="rgb(66,125,80)" fill-opacity="0.75"/>
<line x1="619" y1="122" x2="619" y2="134" stroke="rgb(176,35,80)" stroke-width="1" stroke-opacity="0.5"/>
<circle cx="619" cy="128" r="5" fill="rgb(176,35,80)" fill-opacity="0.75"/>
<line x1="529" y1="314" x2="529" y2="326" stroke="rgb(76,117,80)" stroke-width="1" stroke-opacity="0.5"/>
<circle cx="529" cy="320" r="5" fill="rgb(76,117,80)" fill-opacity="0.75"/>
<line x1="515" y1="359" x2="515" y2="371" stroke="rgb(52,136,80)" stroke-width="1" stroke-opacity="0.5"/>
<circle cx="515" cy="365" r="5" fill="rgb(52,136,80)" fill-opacity="0.75"/>
<line x1="124" y1="425" x2="124" y2="434" stroke="rgb(19,164,80)" stroke-width="1" stroke-opacity="0.5"/>
<circle cx="124" cy="429" r="5" fill="rgb(19,164,80)" fill-opacity="0.75"/>
<circle cx="164" cy="446" r="8" fill="none" stroke="gold" stroke-width="2.5"/>
<text x="174" y="440" font-size="10" fill="#333" font-family="sans-serif">best</text>
<text x="823" y="57" text-anchor="end" font-size="9" fill="#888" font-family="sans-serif">colour: blue=best, red=worst</text>
</svg>
