<?xml version="1.0"?>
<svg xmlns="http://www.w3.org/2000/svg" width="850" height="520">
<rect width="850" height="520" fill="#fafafa"/>
<text x="425" y="28" text-anchor="middle" font-size="15" font-weight="bold" font-family="sans-serif">GRASP: rcl_size vs avg (budget=100k)</text>
<line x1="75" y1="465" x2="825" y2="465" stroke="#ddd" stroke-width="1"/>
<text x="71" y="469" text-anchor="end" font-size="10" font-family="sans-serif">1553</text>
<line x1="75" y1="381" x2="825" y2="381" stroke="#ddd" stroke-width="1"/>
<text x="71" y="385" text-anchor="end" font-size="10" font-family="sans-serif">6782</text>
<line x1="75" y1="297" x2="825" y2="297" stroke="#ddd" stroke-width="1"/>
<text x="71" y="301" text-anchor="end" font-size="10" font-family="sans-serif">12010</text>
<line x1="75" y1="213" x2="825" y2="213" stroke="#ddd" stroke-width="1"/>
<text x="71" y="217" text-anchor="end" font-size="10" font-family="sans-serif">17239</text>
<line x1="75" y1="129" x2="825" y2="129" stroke="#ddd" stroke-width="1"/>
<text x="71" y="133" text-anchor="end" font-size="10" font-family="sans-serif">22468</text>
<line x1="75" y1="45" x2="825" y2="45" stroke="#ddd" stroke-width="1"/>
<text x="71" y="49" text-anchor="end" font-size="10" font-family="sans-serif">27696</text>
<line x1="75" y1="465" x2="75" y2="469" stroke="#888"/>
<text x="75" y="481" text-anchor="middle" font-size="9" font-family="sans-serif">0.75</text>
<line x1="225" y1="465" x2="225" y2="469" stroke="#888"/>
<text x="225" y="481" text-anchor="middle" font-size="9" font-family="sans-serif">1.85</text>
<line x1="375" y1="465" x2="375" y2="469" stroke="#888"/>
<text x="375" y="481" text-anchor="middle" font-size="9" font-family="sans-serif">2.95</text>
<line x1="525" y1="465" x2="525" y2="469" stroke="#888"/>
<text x="525" y="481" text-anchor="middle" font-size="9" font-family="sans-serif">4.05</text>
<line x1="675" y1="465" x2="675" y2="469" stroke="#888"/>
<text x="675" y="481" text-anchor="middle" font-size="9" font-family="sans-serif">5.15</text>
<line x1="825" y1="465" x2="825" y2="469" stroke="#888"/>
<text x="825" y="481" text-anchor="middle" font-size="9" font-family="sans-serif">6.25</text>
<line x1="75" y1="45" x2="75" y2="465" stroke="#333" stroke-width="1.5"/>
<line x1="75" y1="465" x2="825" y2="465" stroke="#333" stroke-width="1.5"/>
<text x="450" y="515" text-anchor="middle" font-size="12" font-family="sans-serif">rcl_size</text>
<text transform="rotate(-90,18,255)" x="18" y="259" text-anchor="middle" font-size="11" font-family="sans-serif">Objective value</text>
<line x1="109" y1="395" x2="109" y2="404" stroke="rgb(34,151,80)" stroke-width="1" stroke-opacity="0.5"/>
<circle cx="109" cy="399" r="5" fill="rgb(34,151,80)" fill-opacity="0.75"/>
<line x1="245" y1="356" x2="245" y2="368" stroke="rgb(54,135,80)" stroke-width="1" stroke-opacity="0.5"/>
<circle cx="245" cy="362" r="5" fill="rgb(54,135,80)" fill-opacity="0.75"/>
<line x1="109" y1="367" x2="109" y2="377" stroke="rgb(48,139,80)" stroke-width="1" stroke-opacity="0.5"/>
<circle cx="109" cy="372" r="5" fill="rgb(48,139,80)" fill-opacity="0.75"/>
<line x1="518" y1="265" x2="518" y2="277" stroke="rgb(101,96,80)" stroke-width="1" stroke-opacity="0.5"/>
<circle cx="518" cy="271" r="5" fill="rgb(101,96,80)" fill-opacity="0.75"/>
<line x1="790" y1="61" x2="790" y2="72" stroke="rgb(209,8,80)" stroke-width="1" stroke-opacity="0.5"/>
<circle cx="790" cy="66" r="5" fill="rgb(209,8,80)" fill-opacity="0.75"/>
<line x1="245" y1="380" x2="245" y2="391" stroke="rgb(41,145,80)" stroke-width="1" stroke-opacity="0.5"/>
<circle cx="245" cy="385" r="5" fill="rgb(41,145,80)" fill-opacity="0.75"/>
<line x1="518" y1="260" x2="518" y2="273" stroke="rgb(104,94,80)" stroke-width="1" stroke-opacity="0.5"/>
<circle cx="518" cy="267" r="5" fill="rgb(104,94,80)" fill-opacity="0.75"/>
<line x1="654" y1="170" x2="654" y2="183" stroke="rgb(151,56,80)" stroke-width="1" stroke-opacity="0.5"/>
<circle cx="654" cy="177" r="5" fill="rgb(151,56,80)" fill-opacity="0.75"/>
<line x1="109" y1="386" x2="109" y2="396" stroke="rgb(38,148,80)" stroke-width="1" stroke-opacity="0.5"/>
<circle cx="109" cy="391" r="5" fill="rgb(38,148,80)" fill-opacity="0.75"/>
<line x1="654" y1="186" x2="654" y2="197" stroke="rgb(143,62,80)" stroke-width="1" stroke-opacity="0.5"/>
<circle cx="654" cy="192" r="5" fill="rgb(143,62,80)" fill-opacity="0.75"/>
<line x1="654" y1="139" x2="654" y2="150" stroke="rgb(168,42,80)" stroke-width="1" stroke-opacity="0.5"/>
<circle cx="654" cy="144" r="5" fill="rgb(168,42,80)" fill-opacity="0.75"/>
<line x1="518" y1="341" x2="518" y2="352" stroke="rgb(62,128,80)" stroke-width="1" stroke-opacity="0.5"/>
<circle cx="518" cy="346" r="5" fill="rgb(62,128,80)" fill-opacity="0.75"/>
<line x1="109" y1="442" x2="109" y2="451" stroke="rgb(10,171,80)" stroke-width="1" stroke-opacity="0.5"/>
<circle cx="109" cy="446" r="5" fill="rgb(10,171,80)" fill-opacity="0.75"/>
<line x1="381" y1="352" x2="381" y2="365" stroke="rgb(56,134,80)" stroke-width="1" stroke-opacity="0.5"/>
<circle cx="381" cy="358" r="5" fill="rgb(56,134,80)" fill-opacity="0.75"/>
<line x1="654" y1="273" x2="654" y2="283" stroke="rgb(98,99,80)" stroke-width="1" stroke-opacity="0.5"/>
<circle cx="654" cy="278" r="5" fill="rgb(98,99,80)" fill-opacity="0.75"/>
<line x1="518" y1="200" x2="518" y2="210" stroke="rgb(136,68,80)" stroke-width="1" stroke-opacity="0.5"/>
<circle cx="518" cy="205" r="5" fill="rgb(136,68,80)" fill-opacity="0.75"/>
<line x1="790" y1="69" x2="790" y2="79" stroke="rgb(204,12,80)" stroke-width="1" stroke-opacity="0.5"/>
<circle cx="790" cy="74" r="5" fill="rgb(204,12,80)" fill-opacity="0.75"/>
<line x1="381" y1="291" x2="381" y2="301" stroke="rgb(88,107,80)" stroke-width="1" stroke-opacity="0.5"/>
<circle cx="381" cy="296" r="5" fill="rgb(88,107,80)" fill-opacity="0.75"/>
<line x1="245" y1="336" x2="245" y2="348" stroke="rgb(64,127,80)" stroke-width="1" stroke-opacity="0.5"/>
<circle cx="245" cy="342" r="5" fill="rgb(64,127,80)" fill-opacity="0.75"/>
<line x1="790" y1="265" x2="790" y2="275" stroke="rgb(102,96,80)" stroke-width="1" stroke-opacity="0.5"/>
<circle cx="790" cy="270" r="5" fill="rgb(102,96,80)" fill-opacity="0.75"/>
<line x1="654" y1="176" x2="654" y2="188" stroke="rgb(148,58,80)" stroke-width="1" stroke-opacity="0.5"/>
<circle cx="654" cy="182" r="5" fill="rgb(148,58,80)" fill-opacity="0.75"/>
<line x1="381" y1="307" x2="381" y2="318" stroke="rgb(80,114,80)" stroke-width="1" stroke-opacity="0.5"/>
<circle cx="381" cy="312" r="5" fill="rgb(80,114,80)" fill-opacity="0.75"/>
<line x1="654" y1="291" x2="654" y2="304" stroke="rgb(88,107,80)" stroke-width="1" stroke-opacity="0.5"/>
<circle cx="654" cy="297" r="5" fill="rgb(88,107,80)" fill-opacity="0.75"/>
<line x1="654" y1="123" x2="654" y2="134" stroke="rgb(176,35,80)" stroke-width="1" stroke-opacity="0.5"/>
<circle cx="654" cy="128" r="5" fill="rgb(176,35,80)" fill-opacity="0.75"/>
<line x1="381" y1="312" x2="381" y2="325" stroke="rgb(77,116,80)" stroke-width="1" stroke-opacity="0.5"/>
<circle cx="381" cy="318" r="5" fill="rgb(77,116,80)" fill-opacity="0.75"/>
<line x1="790" y1="178" x2="790" y2="189" stroke="rgb(147,59,80)" stroke-width="1" stroke-opacity="0.5"/>
<circle cx="790" cy="184" r="5" fill="rgb(147,59,80)" fill-opacity="0.75"/>
<line x1="654" y1="411" x2="654" y2="421" stroke="rgb(25,158,80)" stroke-width="1" stroke-opacity="0.5"/>
<circle cx="654" cy="416" r="5" fill="rgb(25,158,80)" fill-opacity="0.75"/>
<line x1="109" y1="350" x2="109" y2="359" stroke="rgb(58,132,80)" stroke-width="1" stroke-opacity="0.5"/>
<circle cx="109" cy="354" r="5" fill="rgb(58,132,80)" fill-opacity="0.75"/>
<line x1="245" y1="375" x2="245" y2="385" stroke="rgb(44,143,80)" stroke-width="1" stroke-opacity="0.5"/>
<circle cx="245" cy="380" r="5" fill="rgb(44,143,80)" fill-opacity="0.75"/>
<line x1="381" y1="295" x2="381" y2="307" stroke="rgb(86,109,80)" stroke-width="1" stroke-opacity="0.5"/>
<circle cx="381" cy="301" r="5" fill="rgb(86,109,80)" fill-opacity="0.75"/>
<line x1="109" y1="435" x2="109" y2="444" stroke="rgb(13,168,80)" stroke-width="1" stroke-opacity="0.5"/>
<circle cx="109" cy="440" r="5" fill="rgb(13,168,80)" fill-opacity="0.75"/>
<line x1="654" y1="360" x2="654" y2="370" stroke="rgb(52,136,80)" stroke-width="1" stroke-opacity="0.5"/>
<circle cx="654" cy="365" r="5" fill="rgb(52,136,80)" fill-opacity="0.75"/>
<line x1="790" y1="161" x2="790" y2="174" stroke="rgb(156,52,80)" stroke-width="1" stroke-opacity="0.5"/>
<circle cx="790" cy="167" r="5" fill="rgb(156,52,80)" fill-opacity="0.75"/>
<line x1="518" y1="182" x2="518" y2="194" stroke="rgb(145,61,80)" stroke-width="1" stroke-opacity="0.5"/>
<circle cx="518" cy="188" r="5" fill="rgb(145,61,80)" fill-opacity="0.75"/>
<line x1="654" y1="134" x2="654" y2="145" stroke="rgb(170,40,80)" stroke-width="1" stroke-opacity="0.5"/>
<circle cx="654" cy="139" r="5" fill="rgb(170,40,80)" fill-opacity="0.75"/>
<line x1="518" y1="209" x2="518" y2="222" stroke="rgb(130,72,80)" stroke-width="1" stroke-opacity="0.5"/>
<circle cx="518" cy="215" r="5" fill="rgb(130,72,80)" fill-opacity="0.75"/>
<line x1="518" y1="411" x2="518" y2="421" stroke="rgb(26,158,80)" stroke-width="1" stroke-opacity="0.5"/>
<circle cx="518" cy="416" r="5" fill="rgb(26,158,80)" fill-opacity="0.75"/>
<line x1="518" y1="188" x2="518" y2="200" stroke="rgb(142,63,80)" stroke-width="1" stroke-opacity="0.5"/>
<circle cx="518" cy="194" r="5" fill="rgb(142,63,80)" fill-opacity="0.75"/>
<line x1="790" y1="190" x2="790" y2="200" stroke="rgb(141,64,80)" stroke-width="1" stroke-opacity="0.5"/>
<circle cx="790" cy="195" r="5" fill="rgb(141,64,80)" fill-opacity="0.75"/>
<line x1="109" y1="383" x2="109" y2="393" stroke="rgb(40,146,80)" stroke-width="1" stroke-opacity="0.5"/>
<circle cx="109" cy="388" r="5" fill="rgb(40,146,80)" fill-opacity="0.75"/>
<line x1="790" y1="192" x2="790" y2="204" stroke="rgb(139,65,80)" stroke-width="1" stroke-opacity="0.5"/>
<circle cx="790" cy="198" r="5" fill="rgb(139,65,80)" fill-opacity="0.75"/>
<line x1="245" y1="349" x2="245" y2="360" stroke="rgb(58,132,80)" stroke-width="1" stroke-opacity="0.5"/>
<circle cx="245" cy="355" r="5" fill="rgb(58,132,80)" fill-opacity="0.75"/>
<line x1="381" y1="331" x2="381" y2="342" stroke="rgb(67,124,80)" stroke-width="1" stroke-opacity="0.5"/>
<circle cx="381" cy="336" r="5" fill="rgb(67,124,80)" fill-opacity="0.75"/>
<line x1="109" y1="384" x2="109" y2="394" stroke="rgb(40,147,80)" stroke-width="1" stroke-opacity="0.5"/>
<circle cx="109" cy="389" r="5" fill="rgb(40,147,80)" fill-opacity="0.75"/>
<line x1="381" y1="334" x2="381" y2="345" stroke="rgb(65,126,80)" stroke-width="1" stroke-opacity="0.5"/>
<circle cx="381" cy="340" r="5" fill="rgb(65,126,80)" fill-opacity="0.75"/>
<line x1="245" y1="371" x2="245" y2="383" stroke="rgb(46,142,80)" stroke-width="1" stroke-opacity="0.5"/>
<circle cx="245" cy="377" r="5" fill="rgb(46,142,80)" fill-opacity="0.75"/>
<line x1="109" y1="352" x2="109" y2="362" stroke="rgb(56,133,80)" stroke-width="1" stroke-opacity="0.5"/>
<circle cx="109" cy="357" r="5" fill="rgb(56,133,80)" fill-opacity="0.75"/>
<line x1="109" y1="358" x2="109" y2="368" stroke="rgb(53,136,80)" stroke-width="1" stroke-opacity="0.5"/>
<circle cx="109" cy="363" r="5" fill="rgb(53,136,80)" fill-opacity="0.75"/>
<line x1="245" y1="331" x2="245" y2="343" stroke="rgb(67,125,80)" stroke-width="1" stroke-opacity="0.5"/>
<circle cx="245" cy="337" r="5" fill="rgb(67,125,80)" fill-opacity="0.75"/>
<line x1="381" y1="367" x2="381" y2="377" stroke="rgb(48,140,80)" stroke-width="1" stroke-opacity="0.5"/>
<circle cx="381" cy="372" r="5" fill="rgb(48,140,80)" fill-opacity="0.75"/>
<line x1="381" y1="259" x2="381" y2="271" stroke="rgb(104,94,80)" stroke-width="1" stroke-opacity="0.5"/>
<circle cx="381" cy="265" r="5" fill="rgb(104,94,80)" fill-opacity="0.75"/>
<line x1="518" y1="297" x2="518" y2="307" stroke="rgb(85,109,80)" stroke-width="1" stroke-opacity="0.5"/>
<circle cx="518" cy="302" r="5" fill="rgb(85,109,80)" fill-opacity="0.75"/>
<line x1="790" y1="184" x2="790" y2="197" stroke="rgb(144,62,80)" stroke-width="1" stroke-opacity="0.5"/>
<circle cx="790" cy="190" r="5" fill="rgb(144,62,80)" fill-opacity="0.75"/>
<line x1="790" y1="254" x2="790" y2="266" stroke="rgb(107,91,80)" stroke-width="1" stroke-opacity="0.5"/>
<circle cx="790" cy="260" r="5" fill="rgb(107,91,80)" fill-opacity="0.75"/>
<line x1="245" y1="242" x2="245" y2="254" stroke="rgb(113,86,80)" stroke-width="1" stroke-opacity="0.5"/>
<circle cx="245" cy="248" r="5" fill="rgb(113,86,80)" fill-opacity="0.75"/>
<line x1="381" y1="306" x2="381" y2="317" stroke="rgb(80,113,80)" stroke-width="1" stroke-opacity="0.5"/>
<circle cx="381" cy="311" r="5" fill="rgb(80,113,80)" fill-opacity="0.75"/>
<line x1="109" y1="394" x2="109" y2="403" stroke="rgb(35,151,80)" stroke-width="1" stroke-opacity="0.5"/>
<circle cx="109" cy="398" r="5" fill="rgb(35,151,80)" fill-opacity="0.75"/>
<line x1="654" y1="326" x2="654" y2="336" stroke="rgb(70,122,80)" stroke-width="1" stroke-opacity="0.5"/>
<circle cx="654" cy="331" r="5" fill="rgb(70,122,80)" fill-opacity="0.75"/>
<line x1="381" y1="301" x2="381" y2="313" stroke="rgb(82,112,80)" stroke-width="1" stroke-opacity="0.5"/>
<circle cx="381" cy="307" r="5" fill="rgb(82,112,80)" fill-opacity="0.75"/>
<line x1="518" y1="289" x2="518" y2="301" stroke="rgb(89,107,80)" stroke-width="1" stroke-opacity="0.5"/>
<circle cx="518" cy="295" r="5" fill="rgb(89,107,80)" fill-opacity="0.75"/>
<line x1="381" y1="197" x2="381" y2="209" stroke="rgb(137,67,80)" stroke-width="1" stroke-opacity="0.5"/>
<circle cx="381" cy="203" r="5" fill="rgb(137,67,80)" fill-opacity="0.75"/>
<line x1="381" y1="352" x2="381" y2="365" stroke="rgb(56,134,80)" stroke-width="1" stroke-opacity="0.5"/>
<circle cx="381" cy="358" r="5" fill="rgb(56,134,80)" fill-opacity="0.75"/>
<line x1="245" y1="338" x2="245" y2="349" stroke="rgb(63,127,80)" stroke-width="1" stroke-opacity="0.5"/>
<circle cx="245" cy="343" r="5" fill="rgb(63,127,80)" fill-opacity="0.75"/>
<line x1="654" y1="186" x2="654" y2="198" stroke="rgb(143,62,80)" stroke-width="1" stroke-opacity="0.5"/>
<circle cx="654" cy="192" r="5" fill="rgb(143,62,80)" fill-opacity="0.75"/>
<line x1="654" y1="201" x2="654" y2="214" stroke="rgb(135,69,80)" stroke-width="1" stroke-opacity="0.5"/>
<circle cx="654" cy="207" r="5" fill="rgb(135,69,80)" fill-opacity="0.75"/>
<line x1="654" y1="211" x2="654" y2="221" stroke="rgb(130,73,80)" stroke-width="1" stroke-opacity="0.5"/>
<circle cx="654" cy="216" r="5" fill="rgb(130,73,80)" fill-opacity="0.75"/>
<line x1="381" y1="351" x2="381" y2="362" stroke="rgb(57,133,80)" stroke-width="1" stroke-opacity="0.5"/>
<circle cx="381" cy="357" r="5" fill="rgb(57,133,80)" fill-opacity="0.75"/>
<line x1="518" y1="235" x2="518" y2="247" stroke="rgb(117,83,80)" stroke-width="1" stroke-opacity="0.5"/>
<circle cx="518" cy="241" r="5" fill="rgb(117,83,80)" fill-opacity="0.75"/>
<line x1="790" y1="258" x2="790" y2="270" stroke="rgb(105,93,80)" stroke-width="1" stroke-opacity="0.5"/>
<circle cx="790" cy="264" r="5" fill="rgb(105,93,80)" fill-opacity="0.75"/>
<line x1="245" y1="351" x2="245" y2="362" stroke="rgb(57,133,80)" stroke-width="1" stroke-opacity="0.5"/>
<circle cx="245" cy="357" r="5" fill="rgb(57,133,80)" fill-opacity="0.75"/>
<line x1="109" y1="368" x2="109" y2="378" stroke="rgb(48,140,80)" stroke-width="1" stroke-opacity="0.5"/>
<circle cx="109" cy="373" r="5" fill="rgb(48,140,80)" fill-opacity="0.75"/>
<line x1="654" y1="215" x2="654" y2="226" stroke="rgb(128,74,80)" stroke-width="1" stroke-opacity="0.5"/>
<circle cx="654" cy="220" r="5" fill="rgb(128,74,80)" fill-opacity="0.75"/>
<line x1="518" y1="212" x2="518" y2="224" stroke="rgb(129,73,80)" stroke-width="1" stroke-opacity="0.5"/>
<circle cx="518" cy="218" r="5" fill="rgb(129,73,80)" fill-opacity="0.75"/>
<line x1="518" y1="270" x2="518" y2="282" stroke="rgb(99,98,80)" stroke-width="1" stroke-opacity="0.5"/>
<circle cx="518" cy="276" r="5" fill="rgb(99,98,80)" fill-opacity="0.75"/>
<line x1="245" y1="306" x2="245" y2="318" stroke="rgb(80,114,80)" stroke-width="1" stroke-opacity="0.5"/>
<circle cx="245" cy="312" r="5" fill="rgb(80,114,80)" fill-opacity="0.75"/>
<line x1="245" y1="350" x2="245" y2="361" stroke="rgb(57,132,80)" stroke-width="1" stroke-opacity="0.5"/>
<circle cx="245" cy="355" r="5" fill="rgb(57,132,80)" fill-opacity="0.75"/>
<line x1="381" y1="253" x2="381" y2="265" stroke="rgb(108,91,80)" stroke-width="1" stroke-opacity="0.5"/>
<circle cx="381" cy="259" r="5" fill="rgb(108,91,80)" fill-opacity="0.75"/>
<line x1="790" y1="178" x2="790" y2="190" stroke="rgb(147,59,80)" stroke-width="1" stroke-opacity="0.5"/>
<circle cx="790" cy="184" r="5" fill="rgb(147,59,80)" fill-opacity="0.75"/>
<line x1="654" y1="122" x2="654" y2="135" stroke="rgb(176,35,80)" stroke-width="1" stroke-opacity="0.5"/>
<circle cx="654" cy="129" r="5" fill="rgb(176,35,80)" fill-opacity="0.75"/>
<line x1="381" y1="320" x2="381" y2="330" stroke="rgb(73,119,80)" stroke-width="1" stroke-opacity="0.5"/>
<circle cx="381" cy="325" r="5" fill="rgb(73,119,80)" fill-opacity="0.75"/>
<line x1="654" y1="59" x2="654" y2="71" stroke="rgb(209,8,80)" stroke-width="1" stroke-opacity="0.5"/>
<circle cx="654" cy="65" r="5" fill="rgb(209,8,80)" fill-opacity="0.75"/>
<line x1="518" y1="250" x2="518" y2="261" stroke="rgb(110,89,80)" stroke-width="1" stroke-opacity="0.5"/>
<circle cx="518" cy="255" r="5" fill="rgb(110,89,80)" fill-opacity="0.75"/>
<line x1="654" y1="144" x2="654" y2="156" stroke="rgb(165,44,80)" stroke-width="1" stroke-opacity="0.5"/>
<circle cx="654" cy="150" r="5" fill="rgb(165,44,80)" fill-opacity="0.75"/>
<line x1="381" y1="262" x2="381" y2="274" stroke="rgb(103,95,80)" stroke-width="1" stroke-opacity="0.5"/>
<circle cx="381" cy="268" r="5" fill="rgb(103,95,80)" fill-opacity="0.75"/>
<line x1="654" y1="302" x2="654" y2="314" stroke="rgb(82,112,80)" stroke-width="1" stroke-opacity="0.5"/>
<circle cx="654" cy="308" r="5" fill="rgb(82,112,80)" fill-opacity="0.75"/>
<line x1="109" y1="361" x2="109" y2="371" stroke="rgb(52,137,80)" stroke-width="1" stroke-opacity="0.5"/>
<circle cx="109" cy="366" r="5" fill="rgb(52,137,80)" fill-opacity="0.75"/>
<line x1="790" y1="259" x2="790" y2="271" stroke="rgb(104,94,80)" stroke-width="1" stroke-opacity="0.5"/>
<circle cx="790" cy="265" r="5" fill="rgb(104,94,80)" fill-opacity="0.75"/>
<line x1="109" y1="396" x2="109" y2="406" stroke="rgb(33,152,80)" stroke-width="1" stroke-opacity="0.5"/>
<circle cx="109" cy="401" r="5" fill="rgb(33,152,80)" fill-opacity="0.75"/>
<line x1="790" y1="183" x2="790" y2="195" stroke="rgb(144,61,80)" stroke-width="1" stroke-opacity="0.5"/>
<circle cx="790" cy="189" r="5" fill="rgb(144,61,80)" fill-opacity="0.75"/>
<line x1="518" y1="272" x2="518" y2="284" stroke="rgb(98,99,80)" stroke-width="1" stroke-opacity="0.5"/>
<circle cx="518" cy="278" r="5" fill="rgb(98,99,80)" fill-opacity="0.75"/>
<line x1="381" y1="239" x2="381" y2="251" stroke="rgb(115,85,80)" stroke-width="1" stroke-opacity="0.5"/>
<circle cx="381" cy="245" r="5" fill="rgb(115,85,80)" fill-opacity="0.75"/>
<line x1="654" y1="262" x2="654" y2="273" stroke="rgb(103,95,80)" stroke-width="1" stroke-opacity="0.5"/>
<circle cx="654" cy="267" r="5" fill="rgb(103,95,80)" fill-opacity="0.75"/>
<line x1="109" y1="364" x2="109" y2="374" stroke="rgb(50,138,80)" stroke-width="1" stroke-opacity="0.5"/>
<circle cx="109" cy="369" r="5" fill="rgb(50,138,80)" fill-opacity="0.75"/>
<line x1="518" y1="217" x2="518" y2="230" stroke="rgb(126,76,80)" stroke-width="1" stroke-opacity="0.5"/>
<circle cx="518" cy="223" r="5" fill="rgb(126,76,80)" fill-opacity="0.75"/>
<line x1="245" y1="348" x2="245" y2="360" stroke="rgb(58,132,80)" stroke-width="1" stroke-opacity="0.5"/>
<circle cx="245" cy="354" r="5" fill="rgb(58,132,80)" fill-opacity="0.75"/>
<line x1="381" y1="337" x2="381" y2="340" stroke="rgb(66,125,80)" stroke-width="1" stroke-opacity="0.5"/>
<circle cx="381" cy="339" r="5" fill="rgb(66,125,80)" fill-opacity="0.75"/>
<line x1="381" y1="122" x2="381" y2="134" stroke="rgb(176,35,80)" stroke-width="1" stroke-opacity="0.5"/>
<circle cx="381" cy="128" r="5" fill="rgb(176,35,80)" fill-opacity="0.75"/>
<line x1="381" y1="314" x2="381" y2="326" stroke="rgb(76,117,80)" stroke-width="1" stroke-opacity="0.5"/>
<circle cx="381" cy="320" r="5" fill="rgb(76,117,80)" fill-opacity="0.75"/>
<line x1="381" y1="359" x2="381" y2="371" stroke="rgb(52,136,80)" stroke-width="1" stroke-opacity="0.5"/>
<circle cx="381" cy="365" r="5" fill="rgb(52,136,80)" fill-opacity="0.75"/>
<line x1="245" y1="425" x2="245" y2="434" stroke="rgb(19,164,80)" stroke-width="1" stroke-opacity="0.5"/>
<circle cx="245" cy="429" r="5" fill="rgb(19,164,80)" fill-opacity="0.75"/>
<circle cx="109" cy="446" r="8" fill="none" stroke="gold" stroke-width="2.5"/>
<text x="119" y="440" font-size="10" fill="#333" font-family="sans-serif">best</text>
<text x="823" y="57" text-anchor="end" font-size="9" fill="#888" font-family="sans-serif">colour: blue=best, red=worst</text>
</svg>
