<?xml version="1.0"?>
<svg xmlns="http://www.w3.org/2000/svg" width="850" height="520">
<rect width="850" height="520" fill="#fafafa"/>
<text x="425" y="28" text-anchor="middle" font-size="15" font-weight="bold" font-family="sans-serif">SA: cooling_rate vs avg (budget=100k)</text>
<line x1="75" y1="465" x2="825" y2="465" stroke="#ddd" stroke-width="1"/>
<text x="71" y="469" text-anchor="end" font-size="10" font-family="sans-serif">1517696</text>
<line x1="75" y1="381" x2="825" y2="381" stroke="#ddd" stroke-width="1"/>
<text x="71" y="385" text-anchor="end" font-size="10" font-family="sans-serif">1707300</text>
<line x1="75" y1="297" x2="825" y2="297" stroke="#ddd" stroke-width="1"/>
<text x="71" y="301" text-anchor="end" font-size="10" font-family="sans-serif">1896904</text>
<line x1="75" y1="213" x2="825" y2="213" stroke="#ddd" stroke-width="1"/>
<text x="71" y="217" text-anchor="end" font-size="10" font-family="sans-serif">2086508</text>
<line x1="75" y1="129" x2="825" y2="129" stroke="#ddd" stroke-width="1"/>
<text x="71" y="133" text-anchor="end" font-size="10" font-family="sans-serif">2276112</text>
<line x1="75" y1="45" x2="825" y2="45" stroke="#ddd" stroke-width="1"/>
<text x="71" y="49" text-anchor="end" font-size="10" font-family="sans-serif">2465716</text>
<line x1="75" y1="465" x2="75" y2="469" stroke="#888"/>
<text x="75" y="481" text-anchor="middle" font-size="9" font-family="sans-serif">0.90</text>
<line x1="224" y1="465" x2="224" y2="469" stroke="#888"/>
<text x="224" y="481" text-anchor="middle" font-size="9" font-family="sans-serif">0.92</text>
<line x1="375" y1="465" x2="375" y2="469" stroke="#888"/>
<text x="375" y="481" text-anchor="middle" font-size="9" font-family="sans-serif">0.94</text>
<line x1="524" y1="465" x2="524" y2="469" stroke="#888"/>
<text x="524" y="481" text-anchor="middle" font-size="9" font-family="sans-serif">0.96</text>
<line x1="675" y1="465" x2="675" y2="469" stroke="#888"/>
<text x="675" y="481" text-anchor="middle" font-size="9" font-family="sans-serif">0.98</text>
<line x1="825" y1="465" x2="825" y2="469" stroke="#888"/>
<text x="825" y="481" text-anchor="middle" font-size="9" font-family="sans-serif">1.00</text>
<line x1="75" y1="45" x2="75" y2="465" stroke="#333" stroke-width="1.5"/>
<line x1="75" y1="465" x2="825" y2="465" stroke="#333" stroke-width="1.5"/>
<text x="450" y="515" text-anchor="middle" font-size="12" font-family="sans-serif">cooling_rate</text>
<text transform="rotate(-90,18,255)" x="18" y="259" text-anchor="middle" font-size="11" font-family="sans-serif">Objective value</text>
<line x1="718" y1="436" x2="718" y2="444" stroke="rgb(13,169,80)" stroke-width="1" stroke-opacity="0.5"/>
<circle cx="718" cy="440" r="5" fill="rgb(13,169,80)" fill-opacity="0.75"/>
<line x1="704" y1="435" x2="704" y2="442" stroke="rgb(14,168,80)" stroke-width="1" stroke-opacity="0.5"/>
<circle cx="704" cy="438" r="5" fill="rgb(14,168,80)" fill-opacity="0.75"/>
<line x1="324" y1="343" x2="324" y2="420" stroke="rgb(44,143,80)" stroke-width="1" stroke-opacity="0.5"/>
<circle cx="324" cy="381" r="5" fill="rgb(44,143,80)" fill-opacity="0.75"/>
<line x1="776" y1="445" x2="776" y2="447" stroke="rgb(10,171,80)" stroke-width="1" stroke-opacity="0.5"/>
<circle cx="776" cy="446" r="5" fill="rgb(10,171,80)" fill-opacity="0.75"/>
<line x1="384" y1="337" x2="384" y2="417" stroke="rgb(46,142,80)" stroke-width="1" stroke-opacity="0.5"/>
<circle cx="384" cy="377" r="5" fill="rgb(46,142,80)" fill-opacity="0.75"/>
<line x1="776" y1="425" x2="776" y2="441" stroke="rgb(17,165,80)" stroke-width="1" stroke-opacity="0.5"/>
<circle cx="776" cy="433" r="5" fill="rgb(17,165,80)" fill-opacity="0.75"/>
<line x1="204" y1="384" x2="204" y2="419" stroke="rgb(33,152,80)" stroke-width="1" stroke-opacity="0.5"/>
<circle cx="204" cy="402" r="5" fill="rgb(33,152,80)" fill-opacity="0.75"/>
<line x1="722" y1="431" x2="722" y2="447" stroke="rgb(13,168,80)" stroke-width="1" stroke-opacity="0.5"/>
<circle cx="722" cy="439" r="5" fill="rgb(13,168,80)" fill-opacity="0.75"/>
<line x1="205" y1="395" x2="205" y2="425" stroke="rgb(29,156,80)" stroke-width="1" stroke-opacity="0.5"/>
<circle cx="205" cy="410" r="5" fill="rgb(29,156,80)" fill-opacity="0.75"/>
<line x1="622" y1="422" x2="622" y2="444" stroke="rgb(17,165,80)" stroke-width="1" stroke-opacity="0.5"/>
<circle cx="622" cy="433" r="5" fill="rgb(17,165,80)" fill-opacity="0.75"/>
<line x1="650" y1="428" x2="650" y2="444" stroke="rgb(15,167,80)" stroke-width="1" stroke-opacity="0.5"/>
<circle cx="650" cy="436" r="5" fill="rgb(15,167,80)" fill-opacity="0.75"/>
<line x1="495" y1="394" x2="495" y2="433" stroke="rgb(27,157,80)" stroke-width="1" stroke-opacity="0.5"/>
<circle cx="495" cy="413" r="5" fill="rgb(27,157,80)" fill-opacity="0.75"/>
<line x1="627" y1="353" x2="627" y2="419" stroke="rgb(41,145,80)" stroke-width="1" stroke-opacity="0.5"/>
<circle cx="627" cy="386" r="5" fill="rgb(41,145,80)" fill-opacity="0.75"/>
<line x1="190" y1="338" x2="190" y2="413" stroke="rgb(47,141,80)" stroke-width="1" stroke-opacity="0.5"/>
<circle cx="190" cy="375" r="5" fill="rgb(47,141,80)" fill-opacity="0.75"/>
<line x1="788" y1="445" x2="788" y2="447" stroke="rgb(10,171,80)" stroke-width="1" stroke-opacity="0.5"/>
<circle cx="788" cy="446" r="5" fill="rgb(10,171,80)" fill-opacity="0.75"/>
<line x1="473" y1="359" x2="473" y2="414" stroke="rgb(41,146,80)" stroke-width="1" stroke-opacity="0.5"/>
<circle cx="473" cy="386" r="5" fill="rgb(41,146,80)" fill-opacity="0.75"/>
<line x1="571" y1="413" x2="571" y2="436" stroke="rgb(21,162,80)" stroke-width="1" stroke-opacity="0.5"/>
<circle cx="571" cy="425" r="5" fill="rgb(21,162,80)" fill-opacity="0.75"/>
<line x1="505" y1="393" x2="505" y2="429" stroke="rgb(28,156,80)" stroke-width="1" stroke-opacity="0.5"/>
<circle cx="505" cy="411" r="5" fill="rgb(28,156,80)" fill-opacity="0.75"/>
<line x1="635" y1="401" x2="635" y2="439" stroke="rgb(23,160,80)" stroke-width="1" stroke-opacity="0.5"/>
<circle cx="635" cy="420" r="5" fill="rgb(23,160,80)" fill-opacity="0.75"/>
<line x1="789" y1="445" x2="789" y2="447" stroke="rgb(10,171,80)" stroke-width="1" stroke-opacity="0.5"/>
<circle cx="789" cy="446" r="5" fill="rgb(10,171,80)" fill-opacity="0.75"/>
<line x1="405" y1="385" x2="405" y2="432" stroke="rgb(29,155,80)" stroke-width="1" stroke-opacity="0.5"/>
<circle cx="405" cy="409" r="5" fill="rgb(29,155,80)" fill-opacity="0.75"/>
<line x1="174" y1="368" x2="174" y2="404" stroke="rgb(41,145,80)" stroke-width="1" stroke-opacity="0.5"/>
<circle cx="174" cy="386" r="5" fill="rgb(41,145,80)" fill-opacity="0.75"/>
<line x1="264" y1="345" x2="264" y2="410" stroke="rgb(46,142,80)" stroke-width="1" stroke-opacity="0.5"/>
<circle cx="264" cy="377" r="5" fill="rgb(46,142,80)" fill-opacity="0.75"/>
<line x1="180" y1="347" x2="180" y2="397" stroke="rgb(48,139,80)" stroke-width="1" stroke-opacity="0.5"/>
<circle cx="180" cy="372" r="5" fill="rgb(48,139,80)" fill-opacity="0.75"/>
<line x1="409" y1="330" x2="409" y2="381" stroke="rgb(57,132,80)" stroke-width="1" stroke-opacity="0.5"/>
<circle cx="409" cy="356" r="5" fill="rgb(57,132,80)" fill-opacity="0.75"/>
<line x1="209" y1="400" x2="209" y2="428" stroke="rgb(26,158,80)" stroke-width="1" stroke-opacity="0.5"/>
<circle cx="209" cy="414" r="5" fill="rgb(26,158,80)" fill-opacity="0.75"/>
<line x1="530" y1="355" x2="530" y2="402" stroke="rgb(45,142,80)" stroke-width="1" stroke-opacity="0.5"/>
<circle cx="530" cy="378" r="5" fill="rgb(45,142,80)" fill-opacity="0.75"/>
<line x1="571" y1="394" x2="571" y2="420" stroke="rgb(30,154,80)" stroke-width="1" stroke-opacity="0.5"/>
<circle cx="571" cy="407" r="5" fill="rgb(30,154,80)" fill-opacity="0.75"/>
<line x1="783" y1="446" x2="783" y2="447" stroke="rgb(9,171,80)" stroke-width="1" stroke-opacity="0.5"/>
<circle cx="783" cy="446" r="5" fill="rgb(9,171,80)" fill-opacity="0.75"/>
<line x1="639" y1="426" x2="639" y2="445" stroke="rgb(15,167,80)" stroke-width="1" stroke-opacity="0.5"/>
<circle cx="639" cy="435" r="5" fill="rgb(15,167,80)" fill-opacity="0.75"/>
<line x1="440" y1="373" x2="440" y2="420" stroke="rgb(36,150,80)" stroke-width="1" stroke-opacity="0.5"/>
<circle cx="440" cy="397" r="5" fill="rgb(36,150,80)" fill-opacity="0.75"/>
<line x1="403" y1="375" x2="403" y2="415" stroke="rgb(36,149,80)" stroke-width="1" stroke-opacity="0.5"/>
<circle cx="403" cy="395" r="5" fill="rgb(36,149,80)" fill-opacity="0.75"/>
<line x1="691" y1="441" x2="691" y2="447" stroke="rgb(11,170,80)" stroke-width="1" stroke-opacity="0.5"/>
<circle cx="691" cy="444" r="5" fill="rgb(11,170,80)" fill-opacity="0.75"/>
<line x1="618" y1="304" x2="618" y2="402" stroke="rgb(58,131,80)" stroke-width="1" stroke-opacity="0.5"/>
<circle cx="618" cy="353" r="5" fill="rgb(58,131,80)" fill-opacity="0.75"/>
<line x1="350" y1="291" x2="350" y2="394" stroke="rgb(64,127,80)" stroke-width="1" stroke-opacity="0.5"/>
<circle cx="350" cy="342" r="5" fill="rgb(64,127,80)" fill-opacity="0.75"/>
<line x1="256" y1="230" x2="256" y2="384" stroke="rgb(82,112,80)" stroke-width="1" stroke-opacity="0.5"/>
<circle cx="256" cy="307" r="5" fill="rgb(82,112,80)" fill-opacity="0.75"/>
<line x1="248" y1="359" x2="248" y2="421" stroke="rgb(39,147,80)" stroke-width="1" stroke-opacity="0.5"/>
<circle cx="248" cy="390" r="5" fill="rgb(39,147,80)" fill-opacity="0.75"/>
<line x1="584" y1="429" x2="584" y2="442" stroke="rgb(15,166,80)" stroke-width="1" stroke-opacity="0.5"/>
<circle cx="584" cy="435" r="5" fill="rgb(15,166,80)" fill-opacity="0.75"/>
<line x1="613" y1="369" x2="613" y2="414" stroke="rgb(38,148,80)" stroke-width="1" stroke-opacity="0.5"/>
<circle cx="613" cy="391" r="5" fill="rgb(38,148,80)" fill-opacity="0.75"/>
<line x1="531" y1="347" x2="531" y2="386" stroke="rgb(52,137,80)" stroke-width="1" stroke-opacity="0.5"/>
<circle cx="531" cy="366" r="5" fill="rgb(52,137,80)" fill-opacity="0.75"/>
<line x1="500" y1="417" x2="500" y2="436" stroke="rgb(20,163,80)" stroke-width="1" stroke-opacity="0.5"/>
<circle cx="500" cy="426" r="5" fill="rgb(20,163,80)" fill-opacity="0.75"/>
<line x1="507" y1="421" x2="507" y2="443" stroke="rgb(17,165,80)" stroke-width="1" stroke-opacity="0.5"/>
<circle cx="507" cy="432" r="5" fill="rgb(17,165,80)" fill-opacity="0.75"/>
<line x1="549" y1="397" x2="549" y2="437" stroke="rgb(25,159,80)" stroke-width="1" stroke-opacity="0.5"/>
<circle cx="549" cy="417" r="5" fill="rgb(25,159,80)" fill-opacity="0.75"/>
<line x1="422" y1="406" x2="422" y2="436" stroke="rgb(23,160,80)" stroke-width="1" stroke-opacity="0.5"/>
<circle cx="422" cy="421" r="5" fill="rgb(23,160,80)" fill-opacity="0.75"/>
<line x1="691" y1="418" x2="691" y2="430" stroke="rgb(21,162,80)" stroke-width="1" stroke-opacity="0.5"/>
<circle cx="691" cy="424" r="5" fill="rgb(21,162,80)" fill-opacity="0.75"/>
<line x1="470" y1="402" x2="470" y2="431" stroke="rgb(25,158,80)" stroke-width="1" stroke-opacity="0.5"/>
<circle cx="470" cy="416" r="5" fill="rgb(25,158,80)" fill-opacity="0.75"/>
<line x1="790" y1="426" x2="790" y2="432" stroke="rgb(19,164,80)" stroke-width="1" stroke-opacity="0.5"/>
<circle cx="790" cy="429" r="5" fill="rgb(19,164,80)" fill-opacity="0.75"/>
<line x1="245" y1="172" x2="245" y2="326" stroke="rgb(113,87,80)" stroke-width="1" stroke-opacity="0.5"/>
<circle cx="245" cy="249" r="5" fill="rgb(113,87,80)" fill-opacity="0.75"/>
<line x1="392" y1="374" x2="392" y2="413" stroke="rgb(37,149,80)" stroke-width="1" stroke-opacity="0.5"/>
<circle cx="392" cy="394" r="5" fill="rgb(37,149,80)" fill-opacity="0.75"/>
<line x1="294" y1="303" x2="294" y2="408" stroke="rgb(57,132,80)" stroke-width="1" stroke-opacity="0.5"/>
<circle cx="294" cy="356" r="5" fill="rgb(57,132,80)" fill-opacity="0.75"/>
<line x1="283" y1="367" x2="283" y2="420" stroke="rgb(37,149,80)" stroke-width="1" stroke-opacity="0.5"/>
<circle cx="283" cy="393" r="5" fill="rgb(37,149,80)" fill-opacity="0.75"/>
<line x1="355" y1="308" x2="355" y2="388" stroke="rgb(61,129,80)" stroke-width="1" stroke-opacity="0.5"/>
<circle cx="355" cy="348" r="5" fill="rgb(61,129,80)" fill-opacity="0.75"/>
<line x1="176" y1="370" x2="176" y2="408" stroke="rgb(40,147,80)" stroke-width="1" stroke-opacity="0.5"/>
<circle cx="176" cy="389" r="5" fill="rgb(40,147,80)" fill-opacity="0.75"/>
<line x1="295" y1="361" x2="295" y2="405" stroke="rgb(43,144,80)" stroke-width="1" stroke-opacity="0.5"/>
<circle cx="295" cy="383" r="5" fill="rgb(43,144,80)" fill-opacity="0.75"/>
<line x1="562" y1="306" x2="562" y2="412" stroke="rgb(55,134,80)" stroke-width="1" stroke-opacity="0.5"/>
<circle cx="562" cy="359" r="5" fill="rgb(55,134,80)" fill-opacity="0.75"/>
<line x1="409" y1="407" x2="409" y2="434" stroke="rgb(23,160,80)" stroke-width="1" stroke-opacity="0.5"/>
<circle cx="409" cy="420" r="5" fill="rgb(23,160,80)" fill-opacity="0.75"/>
<line x1="524" y1="398" x2="524" y2="427" stroke="rgb(27,157,80)" stroke-width="1" stroke-opacity="0.5"/>
<circle cx="524" cy="413" r="5" fill="rgb(27,157,80)" fill-opacity="0.75"/>
<line x1="373" y1="366" x2="373" y2="415" stroke="rgb(39,147,80)" stroke-width="1" stroke-opacity="0.5"/>
<circle cx="373" cy="390" r="5" fill="rgb(39,147,80)" fill-opacity="0.75"/>
<line x1="250" y1="383" x2="250" y2="426" stroke="rgb(31,153,80)" stroke-width="1" stroke-opacity="0.5"/>
<circle cx="250" cy="405" r="5" fill="rgb(31,153,80)" fill-opacity="0.75"/>
<line x1="549" y1="410" x2="549" y2="428" stroke="rgb(24,160,80)" stroke-width="1" stroke-opacity="0.5"/>
<circle cx="549" cy="419" r="5" fill="rgb(24,160,80)" fill-opacity="0.75"/>
<line x1="615" y1="427" x2="615" y2="445" stroke="rgb(15,167,80)" stroke-width="1" stroke-opacity="0.5"/>
<circle cx="615" cy="436" r="5" fill="rgb(15,167,80)" fill-opacity="0.75"/>
<line x1="359" y1="400" x2="359" y2="421" stroke="rgb(28,156,80)" stroke-width="1" stroke-opacity="0.5"/>
<circle cx="359" cy="411" r="5" fill="rgb(28,156,80)" fill-opacity="0.75"/>
<line x1="517" y1="400" x2="517" y2="430" stroke="rgb(26,158,80)" stroke-width="1" stroke-opacity="0.5"/>
<circle cx="517" cy="415" r="5" fill="rgb(26,158,80)" fill-opacity="0.75"/>
<line x1="786" y1="445" x2="786" y2="447" stroke="rgb(10,171,80)" stroke-width="1" stroke-opacity="0.5"/>
<circle cx="786" cy="446" r="5" fill="rgb(10,171,80)" fill-opacity="0.75"/>
<line x1="677" y1="423" x2="677" y2="444" stroke="rgb(16,166,80)" stroke-width="1" stroke-opacity="0.5"/>
<circle cx="677" cy="434" r="5" fill="rgb(16,166,80)" fill-opacity="0.75"/>
<line x1="243" y1="-123" x2="243" y2="252" stroke="rgb(210,8,80)" stroke-width="1" stroke-opacity="0.5"/>
<circle cx="243" cy="65" r="5" fill="rgb(210,8,80)" fill-opacity="0.75"/>
<line x1="759" y1="404" x2="759" y2="438" stroke="rgb(23,160,80)" stroke-width="1" stroke-opacity="0.5"/>
<circle cx="759" cy="421" r="5" fill="rgb(23,160,80)" fill-opacity="0.75"/>
<line x1="507" y1="415" x2="507" y2="438" stroke="rgb(20,163,80)" stroke-width="1" stroke-opacity="0.5"/>
<circle cx="507" cy="427" r="5" fill="rgb(20,163,80)" fill-opacity="0.75"/>
<line x1="572" y1="414" x2="572" y2="433" stroke="rgb(21,162,80)" stroke-width="1" stroke-opacity="0.5"/>
<circle cx="572" cy="424" r="5" fill="rgb(21,162,80)" fill-opacity="0.75"/>
<line x1="266" y1="407" x2="266" y2="433" stroke="rgb(23,160,80)" stroke-width="1" stroke-opacity="0.5"/>
<circle cx="266" cy="420" r="5" fill="rgb(23,160,80)" fill-opacity="0.75"/>
<line x1="181" y1="307" x2="181" y2="381" stroke="rgb(63,127,80)" stroke-width="1" stroke-opacity="0.5"/>
<circle cx="181" cy="344" r="5" fill="rgb(63,127,80)" fill-opacity="0.75"/>
<line x1="692" y1="358" x2="692" y2="415" stroke="rgb(41,146,80)" stroke-width="1" stroke-opacity="0.5"/>
<circle cx="692" cy="387" r="5" fill="rgb(41,146,80)" fill-opacity="0.75"/>
<line x1="402" y1="282" x2="402" y2="354" stroke="rgb(77,116,80)" stroke-width="1" stroke-opacity="0.5"/>
<circle cx="402" cy="318" r="5" fill="rgb(77,116,80)" fill-opacity="0.75"/>
<line x1="447" y1="412" x2="447" y2="431" stroke="rgb(22,161,80)" stroke-width="1" stroke-opacity="0.5"/>
<circle cx="447" cy="422" r="5" fill="rgb(22,161,80)" fill-opacity="0.75"/>
<line x1="317" y1="393" x2="317" y2="425" stroke="rgb(29,155,80)" stroke-width="1" stroke-opacity="0.5"/>
<circle cx="317" cy="409" r="5" fill="rgb(29,155,80)" fill-opacity="0.75"/>
<line x1="432" y1="353" x2="432" y2="407" stroke="rgb(44,143,80)" stroke-width="1" stroke-opacity="0.5"/>
<circle cx="432" cy="380" r="5" fill="rgb(44,143,80)" fill-opacity="0.75"/>
<line x1="152" y1="303" x2="152" y2="409" stroke="rgb(57,133,80)" stroke-width="1" stroke-opacity="0.5"/>
<circle cx="152" cy="356" r="5" fill="rgb(57,133,80)" fill-opacity="0.75"/>
<line x1="567" y1="424" x2="567" y2="437" stroke="rgb(18,164,80)" stroke-width="1" stroke-opacity="0.5"/>
<circle cx="567" cy="430" r="5" fill="rgb(18,164,80)" fill-opacity="0.75"/>
<line x1="431" y1="385" x2="431" y2="425" stroke="rgb(31,154,80)" stroke-width="1" stroke-opacity="0.5"/>
<circle cx="431" cy="405" r="5" fill="rgb(31,154,80)" fill-opacity="0.75"/>
<line x1="688" y1="436" x2="688" y2="445" stroke="rgb(13,169,80)" stroke-width="1" stroke-opacity="0.5"/>
<circle cx="688" cy="440" r="5" fill="rgb(13,169,80)" fill-opacity="0.75"/>
<line x1="135" y1="340" x2="135" y2="419" stroke="rgb(45,143,80)" stroke-width="1" stroke-opacity="0.5"/>
<circle cx="135" cy="379" r="5" fill="rgb(45,143,80)" fill-opacity="0.75"/>
<line x1="131" y1="381" x2="131" y2="424" stroke="rgb(32,153,80)" stroke-width="1" stroke-opacity="0.5"/>
<circle cx="131" cy="403" r="5" fill="rgb(32,153,80)" fill-opacity="0.75"/>
<line x1="688" y1="390" x2="688" y2="434" stroke="rgb(27,157,80)" stroke-width="1" stroke-opacity="0.5"/>
<circle cx="688" cy="412" r="5" fill="rgb(27,157,80)" fill-opacity="0.75"/>
<line x1="647" y1="343" x2="647" y2="431" stroke="rgb(41,146,80)" stroke-width="1" stroke-opacity="0.5"/>
<circle cx="647" cy="387" r="5" fill="rgb(41,146,80)" fill-opacity="0.75"/>
<line x1="649" y1="275" x2="649" y2="340" stroke="rgb(82,112,80)" stroke-width="1" stroke-opacity="0.5"/>
<circle cx="649" cy="307" r="5" fill="rgb(82,112,80)" fill-opacity="0.75"/>
<line x1="376" y1="338" x2="376" y2="400" stroke="rgb(50,138,80)" stroke-width="1" stroke-opacity="0.5"/>
<circle cx="376" cy="369" r="5" fill="rgb(50,138,80)" fill-opacity="0.75"/>
<line x1="510" y1="412" x2="510" y2="431" stroke="rgb(22,161,80)" stroke-width="1" stroke-opacity="0.5"/>
<circle cx="510" cy="422" r="5" fill="rgb(22,161,80)" fill-opacity="0.75"/>
<line x1="310" y1="403" x2="310" y2="425" stroke="rgb(26,158,80)" stroke-width="1" stroke-opacity="0.5"/>
<circle cx="310" cy="414" r="5" fill="rgb(26,158,80)" fill-opacity="0.75"/>
<line x1="285" y1="254" x2="285" y2="377" stroke="rgb(78,115,80)" stroke-width="1" stroke-opacity="0.5"/>
<circle cx="285" cy="315" r="5" fill="rgb(78,115,80)" fill-opacity="0.75"/>
<line x1="288" y1="303" x2="288" y2="394" stroke="rgb(61,129,80)" stroke-width="1" stroke-opacity="0.5"/>
<circle cx="288" cy="348" r="5" fill="rgb(61,129,80)" fill-opacity="0.75"/>
<line x1="752" y1="425" x2="752" y2="444" stroke="rgb(16,166,80)" stroke-width="1" stroke-opacity="0.5"/>
<circle cx="752" cy="435" r="5" fill="rgb(16,166,80)" fill-opacity="0.75"/>
<line x1="214" y1="276" x2="214" y2="351" stroke="rgb(79,115,80)" stroke-width="1" stroke-opacity="0.5"/>
<circle cx="214" cy="314" r="5" fill="rgb(79,115,80)" fill-opacity="0.75"/>
<line x1="495" y1="392" x2="495" y2="419" stroke="rgb(31,154,80)" stroke-width="1" stroke-opacity="0.5"/>
<circle cx="495" cy="405" r="5" fill="rgb(31,154,80)" fill-opacity="0.75"/>
<line x1="182" y1="311" x2="182" y2="398" stroke="rgb(58,132,80)" stroke-width="1" stroke-opacity="0.5"/>
<circle cx="182" cy="354" r="5" fill="rgb(58,132,80)" fill-opacity="0.75"/>
<line x1="335" y1="-7" x2="335" y2="368" stroke="rgb(149,57,80)" stroke-width="1" stroke-opacity="0.5"/>
<circle cx="335" cy="181" r="5" fill="rgb(149,57,80)" fill-opacity="0.75"/>
<line x1="742" y1="403" x2="742" y2="439" stroke="rgb(23,160,80)" stroke-width="1" stroke-opacity="0.5"/>
<circle cx="742" cy="421" r="5" fill="rgb(23,160,80)" fill-opacity="0.75"/>
<line x1="109" y1="371" x2="109" y2="422" stroke="rgb(36,150,80)" stroke-width="1" stroke-opacity="0.5"/>
<circle cx="109" cy="396" r="5" fill="rgb(36,150,80)" fill-opacity="0.75"/>
<line x1="653" y1="432" x2="653" y2="444" stroke="rgb(14,168,80)" stroke-width="1" stroke-opacity="0.5"/>
<circle cx="653" cy="438" r="5" fill="rgb(14,168,80)" fill-opacity="0.75"/>
<line x1="222" y1="325" x2="222" y2="432" stroke="rgb(45,142,80)" stroke-width="1" stroke-opacity="0.5"/>
<circle cx="222" cy="378" r="5" fill="rgb(45,142,80)" fill-opacity="0.75"/>
<line x1="296" y1="131" x2="296" y2="352" stroke="rgb(117,84,80)" stroke-width="1" stroke-opacity="0.5"/>
<circle cx="296" cy="242" r="5" fill="rgb(117,84,80)" fill-opacity="0.75"/>
<circle cx="783" cy="446" r="8" fill="none" stroke="gold" stroke-width="2.5"/>
<text x="793" y="440" font-size="10" fill="#333" font-family="sans-serif">best</text>
<text x="823" y="57" text-anchor="end" font-size="9" fill="#888" font-family="sans-serif">colour: blue=best, red=worst</text>
</svg>
