<?xml version="1.0"?>
<svg xmlns="http://www.w3.org/2000/svg" width="850" height="520">
<rect width="850" height="520" fill="#fafafa"/>
<text x="425" y="28" text-anchor="middle" font-size="15" font-weight="bold" font-family="sans-serif">SA: initial_temp vs avg (budget=100k)</text>
<line x1="75" y1="465" x2="825" y2="465" stroke="#ddd" stroke-width="1"/>
<text x="71" y="469" text-anchor="end" font-size="10" font-family="sans-serif">1517696</text>
<line x1="75" y1="381" x2="825" y2="381" stroke="#ddd" stroke-width="1"/>
<text x="71" y="385" text-anchor="end" font-size="10" font-family="sans-serif">1707300</text>
<line x1="75" y1="297" x2="825" y2="297" stroke="#ddd" stroke-width="1"/>
<text x="71" y="301" text-anchor="end" font-size="10" font-family="sans-serif">1896904</text>
<line x1="75" y1="213" x2="825" y2="213" stroke="#ddd" stroke-width="1"/>
<text x="71" y="217" text-anchor="end" font-size="10" font-family="sans-serif">2086508</text>
<line x1="75" y1="129" x2="825" y2="129" stroke="#ddd" stroke-width="1"/>
<text x="71" y="133" text-anchor="end" font-size="10" font-family="sans-serif">2276112</text>
<line x1="75" y1="45" x2="825" y2="45" stroke="#ddd" stroke-width="1"/>
<text x="71" y="49" text-anchor="end" font-size="10" font-family="sans-serif">2465716</text>
<line x1="75" y1="465" x2="75" y2="469" stroke="#888"/>
<text x="75" y="481" text-anchor="middle" font-size="9" font-family="sans-serif">-33464.15</text>
<line x1="225" y1="465" x2="225" y2="469" stroke="#888"/>
<text x="225" y="481" text-anchor="middle" font-size="9" font-family="sans-serif">139509.75</text>
<line x1="375" y1="465" x2="375" y2="469" stroke="#888"/>
<text x="375" y="481" text-anchor="middle" font-size="9" font-family="sans-serif">312483.65</text>
<line x1="525" y1="465" x2="525" y2="469" stroke="#888"/>
<text x="525" y="481" text-anchor="middle" font-size="9" font-family="sans-serif">485457.55</text>
<line x1="675" y1="465" x2="675" y2="469" stroke="#888"/>
<text x="675" y="481" text-anchor="middle" font-size="9" font-family="sans-serif">658431.45</text>
<line x1="825" y1="465" x2="825" y2="469" stroke="#888"/>
<text x="825" y="481" text-anchor="middle" font-size="9" font-family="sans-serif">831405.35</text>
<line x1="75" y1="45" x2="75" y2="465" stroke="#333" stroke-width="1.5"/>
<line x1="75" y1="465" x2="825" y2="465" stroke="#333" stroke-width="1.5"/>
<text x="450" y="515" text-anchor="middle" font-size="12" font-family="sans-serif">initial_temp</text>
<text transform="rotate(-90,18,255)" x="18" y="259" text-anchor="middle" font-size="11" font-family="sans-serif">Objective value</text>
<line x1="591" y1="436" x2="591" y2="444" stroke="rgb(13,169,80)" stroke-width="1" stroke-opacity="0.5"/>
<circle cx="591" cy="440" r="5" fill="rgb(13,169,80)" fill-opacity="0.75"/>
<line x1="507" y1="435" x2="507" y2="442" stroke="rgb(14,168,80)" stroke-width="1" stroke-opacity="0.5"/>
<circle cx="507" cy="438" r="5" fill="rgb(14,168,80)" fill-opacity="0.75"/>
<line x1="519" y1="343" x2="519" y2="420" stroke="rgb(44,143,80)" stroke-width="1" stroke-opacity="0.5"/>
<circle cx="519" cy="381" r="5" fill="rgb(44,143,80)" fill-opacity="0.75"/>
<line x1="299" y1="445" x2="299" y2="447" stroke="rgb(10,171,80)" stroke-width="1" stroke-opacity="0.5"/>
<circle cx="299" cy="446" r="5" fill="rgb(10,171,80)" fill-opacity="0.75"/>
<line x1="338" y1="337" x2="338" y2="417" stroke="rgb(46,142,80)" stroke-width="1" stroke-opacity="0.5"/>
<circle cx="338" cy="377" r="5" fill="rgb(46,142,80)" fill-opacity="0.75"/>
<line x1="489" y1="425" x2="489" y2="441" stroke="rgb(17,165,80)" stroke-width="1" stroke-opacity="0.5"/>
<circle cx="489" cy="433" r="5" fill="rgb(17,165,80)" fill-opacity="0.75"/>
<line x1="564" y1="384" x2="564" y2="419" stroke="rgb(33,152,80)" stroke-width="1" stroke-opacity="0.5"/>
<circle cx="564" cy="402" r="5" fill="rgb(33,152,80)" fill-opacity="0.75"/>
<line x1="561" y1="431" x2="561" y2="447" stroke="rgb(13,168,80)" stroke-width="1" stroke-opacity="0.5"/>
<circle cx="561" cy="439" r="5" fill="rgb(13,168,80)" fill-opacity="0.75"/>
<line x1="536" y1="395" x2="536" y2="425" stroke="rgb(29,156,80)" stroke-width="1" stroke-opacity="0.5"/>
<circle cx="536" cy="410" r="5" fill="rgb(29,156,80)" fill-opacity="0.75"/>
<line x1="170" y1="422" x2="170" y2="444" stroke="rgb(17,165,80)" stroke-width="1" stroke-opacity="0.5"/>
<circle cx="170" cy="433" r="5" fill="rgb(17,165,80)" fill-opacity="0.75"/>
<line x1="571" y1="428" x2="571" y2="444" stroke="rgb(15,167,80)" stroke-width="1" stroke-opacity="0.5"/>
<circle cx="571" cy="436" r="5" fill="rgb(15,167,80)" fill-opacity="0.75"/>
<line x1="640" y1="394" x2="640" y2="433" stroke="rgb(27,157,80)" stroke-width="1" stroke-opacity="0.5"/>
<circle cx="640" cy="413" r="5" fill="rgb(27,157,80)" fill-opacity="0.75"/>
<line x1="440" y1="353" x2="440" y2="419" stroke="rgb(41,145,80)" stroke-width="1" stroke-opacity="0.5"/>
<circle cx="440" cy="386" r="5" fill="rgb(41,145,80)" fill-opacity="0.75"/>
<line x1="395" y1="338" x2="395" y2="413" stroke="rgb(47,141,80)" stroke-width="1" stroke-opacity="0.5"/>
<circle cx="395" cy="375" r="5" fill="rgb(47,141,80)" fill-opacity="0.75"/>
<line x1="633" y1="445" x2="633" y2="447" stroke="rgb(10,171,80)" stroke-width="1" stroke-opacity="0.5"/>
<circle cx="633" cy="446" r="5" fill="rgb(10,171,80)" fill-opacity="0.75"/>
<line x1="184" y1="359" x2="184" y2="414" stroke="rgb(41,146,80)" stroke-width="1" stroke-opacity="0.5"/>
<circle cx="184" cy="386" r="5" fill="rgb(41,146,80)" fill-opacity="0.75"/>
<line x1="763" y1="413" x2="763" y2="436" stroke="rgb(21,162,80)" stroke-width="1" stroke-opacity="0.5"/>
<circle cx="763" cy="425" r="5" fill="rgb(21,162,80)" fill-opacity="0.75"/>
<line x1="574" y1="393" x2="574" y2="429" stroke="rgb(28,156,80)" stroke-width="1" stroke-opacity="0.5"/>
<circle cx="574" cy="411" r="5" fill="rgb(28,156,80)" fill-opacity="0.75"/>
<line x1="215" y1="401" x2="215" y2="439" stroke="rgb(23,160,80)" stroke-width="1" stroke-opacity="0.5"/>
<circle cx="215" cy="420" r="5" fill="rgb(23,160,80)" fill-opacity="0.75"/>
<line x1="277" y1="445" x2="277" y2="447" stroke="rgb(10,171,80)" stroke-width="1" stroke-opacity="0.5"/>
<circle cx="277" cy="446" r="5" fill="rgb(10,171,80)" fill-opacity="0.75"/>
<line x1="240" y1="385" x2="240" y2="432" stroke="rgb(29,155,80)" stroke-width="1" stroke-opacity="0.5"/>
<circle cx="240" cy="409" r="5" fill="rgb(29,155,80)" fill-opacity="0.75"/>
<line x1="708" y1="368" x2="708" y2="404" stroke="rgb(41,145,80)" stroke-width="1" stroke-opacity="0.5"/>
<circle cx="708" cy="386" r="5" fill="rgb(41,145,80)" fill-opacity="0.75"/>
<line x1="315" y1="345" x2="315" y2="410" stroke="rgb(46,142,80)" stroke-width="1" stroke-opacity="0.5"/>
<circle cx="315" cy="377" r="5" fill="rgb(46,142,80)" fill-opacity="0.75"/>
<line x1="586" y1="347" x2="586" y2="397" stroke="rgb(48,139,80)" stroke-width="1" stroke-opacity="0.5"/>
<circle cx="586" cy="372" r="5" fill="rgb(48,139,80)" fill-opacity="0.75"/>
<line x1="572" y1="330" x2="572" y2="381" stroke="rgb(57,132,80)" stroke-width="1" stroke-opacity="0.5"/>
<circle cx="572" cy="356" r="5" fill="rgb(57,132,80)" fill-opacity="0.75"/>
<line x1="582" y1="400" x2="582" y2="428" stroke="rgb(26,158,80)" stroke-width="1" stroke-opacity="0.5"/>
<circle cx="582" cy="414" r="5" fill="rgb(26,158,80)" fill-opacity="0.75"/>
<line x1="327" y1="355" x2="327" y2="402" stroke="rgb(45,142,80)" stroke-width="1" stroke-opacity="0.5"/>
<circle cx="327" cy="378" r="5" fill="rgb(45,142,80)" fill-opacity="0.75"/>
<line x1="251" y1="394" x2="251" y2="420" stroke="rgb(30,154,80)" stroke-width="1" stroke-opacity="0.5"/>
<circle cx="251" cy="407" r="5" fill="rgb(30,154,80)" fill-opacity="0.75"/>
<line x1="248" y1="446" x2="248" y2="447" stroke="rgb(9,171,80)" stroke-width="1" stroke-opacity="0.5"/>
<circle cx="248" cy="446" r="5" fill="rgb(9,171,80)" fill-opacity="0.75"/>
<line x1="596" y1="426" x2="596" y2="445" stroke="rgb(15,167,80)" stroke-width="1" stroke-opacity="0.5"/>
<circle cx="596" cy="435" r="5" fill="rgb(15,167,80)" fill-opacity="0.75"/>
<line x1="504" y1="373" x2="504" y2="420" stroke="rgb(36,150,80)" stroke-width="1" stroke-opacity="0.5"/>
<circle cx="504" cy="397" r="5" fill="rgb(36,150,80)" fill-opacity="0.75"/>
<line x1="250" y1="375" x2="250" y2="415" stroke="rgb(36,149,80)" stroke-width="1" stroke-opacity="0.5"/>
<circle cx="250" cy="395" r="5" fill="rgb(36,149,80)" fill-opacity="0.75"/>
<line x1="352" y1="441" x2="352" y2="447" stroke="rgb(11,170,80)" stroke-width="1" stroke-opacity="0.5"/>
<circle cx="352" cy="444" r="5" fill="rgb(11,170,80)" fill-opacity="0.75"/>
<line x1="129" y1="304" x2="129" y2="402" stroke="rgb(58,131,80)" stroke-width="1" stroke-opacity="0.5"/>
<circle cx="129" cy="353" r="5" fill="rgb(58,131,80)" fill-opacity="0.75"/>
<line x1="322" y1="291" x2="322" y2="394" stroke="rgb(64,127,80)" stroke-width="1" stroke-opacity="0.5"/>
<circle cx="322" cy="342" r="5" fill="rgb(64,127,80)" fill-opacity="0.75"/>
<line x1="750" y1="230" x2="750" y2="384" stroke="rgb(82,112,80)" stroke-width="1" stroke-opacity="0.5"/>
<circle cx="750" cy="307" r="5" fill="rgb(82,112,80)" fill-opacity="0.75"/>
<line x1="608" y1="359" x2="608" y2="421" stroke="rgb(39,147,80)" stroke-width="1" stroke-opacity="0.5"/>
<circle cx="608" cy="390" r="5" fill="rgb(39,147,80)" fill-opacity="0.75"/>
<line x1="471" y1="429" x2="471" y2="442" stroke="rgb(15,166,80)" stroke-width="1" stroke-opacity="0.5"/>
<circle cx="471" cy="435" r="5" fill="rgb(15,166,80)" fill-opacity="0.75"/>
<line x1="236" y1="369" x2="236" y2="414" stroke="rgb(38,148,80)" stroke-width="1" stroke-opacity="0.5"/>
<circle cx="236" cy="391" r="5" fill="rgb(38,148,80)" fill-opacity="0.75"/>
<line x1="711" y1="347" x2="711" y2="386" stroke="rgb(52,137,80)" stroke-width="1" stroke-opacity="0.5"/>
<circle cx="711" cy="366" r="5" fill="rgb(52,137,80)" fill-opacity="0.75"/>
<line x1="633" y1="417" x2="633" y2="436" stroke="rgb(20,163,80)" stroke-width="1" stroke-opacity="0.5"/>
<circle cx="633" cy="426" r="5" fill="rgb(20,163,80)" fill-opacity="0.75"/>
<line x1="468" y1="421" x2="468" y2="443" stroke="rgb(17,165,80)" stroke-width="1" stroke-opacity="0.5"/>
<circle cx="468" cy="432" r="5" fill="rgb(17,165,80)" fill-opacity="0.75"/>
<line x1="147" y1="397" x2="147" y2="437" stroke="rgb(25,159,80)" stroke-width="1" stroke-opacity="0.5"/>
<circle cx="147" cy="417" r="5" fill="rgb(25,159,80)" fill-opacity="0.75"/>
<line x1="564" y1="406" x2="564" y2="436" stroke="rgb(23,160,80)" stroke-width="1" stroke-opacity="0.5"/>
<circle cx="564" cy="421" r="5" fill="rgb(23,160,80)" fill-opacity="0.75"/>
<line x1="652" y1="418" x2="652" y2="430" stroke="rgb(21,162,80)" stroke-width="1" stroke-opacity="0.5"/>
<circle cx="652" cy="424" r="5" fill="rgb(21,162,80)" fill-opacity="0.75"/>
<line x1="467" y1="402" x2="467" y2="431" stroke="rgb(25,158,80)" stroke-width="1" stroke-opacity="0.5"/>
<circle cx="467" cy="416" r="5" fill="rgb(25,158,80)" fill-opacity="0.75"/>
<line x1="752" y1="426" x2="752" y2="432" stroke="rgb(19,164,80)" stroke-width="1" stroke-opacity="0.5"/>
<circle cx="752" cy="429" r="5" fill="rgb(19,164,80)" fill-opacity="0.75"/>
<line x1="775" y1="172" x2="775" y2="326" stroke="rgb(113,87,80)" stroke-width="1" stroke-opacity="0.5"/>
<circle cx="775" cy="249" r="5" fill="rgb(113,87,80)" fill-opacity="0.75"/>
<line x1="504" y1="374" x2="504" y2="413" stroke="rgb(37,149,80)" stroke-width="1" stroke-opacity="0.5"/>
<circle cx="504" cy="394" r="5" fill="rgb(37,149,80)" fill-opacity="0.75"/>
<line x1="623" y1="303" x2="623" y2="408" stroke="rgb(57,132,80)" stroke-width="1" stroke-opacity="0.5"/>
<circle cx="623" cy="356" r="5" fill="rgb(57,132,80)" fill-opacity="0.75"/>
<line x1="687" y1="367" x2="687" y2="420" stroke="rgb(37,149,80)" stroke-width="1" stroke-opacity="0.5"/>
<circle cx="687" cy="393" r="5" fill="rgb(37,149,80)" fill-opacity="0.75"/>
<line x1="519" y1="308" x2="519" y2="388" stroke="rgb(61,129,80)" stroke-width="1" stroke-opacity="0.5"/>
<circle cx="519" cy="348" r="5" fill="rgb(61,129,80)" fill-opacity="0.75"/>
<line x1="403" y1="370" x2="403" y2="408" stroke="rgb(40,147,80)" stroke-width="1" stroke-opacity="0.5"/>
<circle cx="403" cy="389" r="5" fill="rgb(40,147,80)" fill-opacity="0.75"/>
<line x1="290" y1="361" x2="290" y2="405" stroke="rgb(43,144,80)" stroke-width="1" stroke-opacity="0.5"/>
<circle cx="290" cy="383" r="5" fill="rgb(43,144,80)" fill-opacity="0.75"/>
<line x1="184" y1="306" x2="184" y2="412" stroke="rgb(55,134,80)" stroke-width="1" stroke-opacity="0.5"/>
<circle cx="184" cy="359" r="5" fill="rgb(55,134,80)" fill-opacity="0.75"/>
<line x1="582" y1="407" x2="582" y2="434" stroke="rgb(23,160,80)" stroke-width="1" stroke-opacity="0.5"/>
<circle cx="582" cy="420" r="5" fill="rgb(23,160,80)" fill-opacity="0.75"/>
<line x1="514" y1="398" x2="514" y2="427" stroke="rgb(27,157,80)" stroke-width="1" stroke-opacity="0.5"/>
<circle cx="514" cy="413" r="5" fill="rgb(27,157,80)" fill-opacity="0.75"/>
<line x1="659" y1="366" x2="659" y2="415" stroke="rgb(39,147,80)" stroke-width="1" stroke-opacity="0.5"/>
<circle cx="659" cy="390" r="5" fill="rgb(39,147,80)" fill-opacity="0.75"/>
<line x1="548" y1="383" x2="548" y2="426" stroke="rgb(31,153,80)" stroke-width="1" stroke-opacity="0.5"/>
<circle cx="548" cy="405" r="5" fill="rgb(31,153,80)" fill-opacity="0.75"/>
<line x1="539" y1="410" x2="539" y2="428" stroke="rgb(24,160,80)" stroke-width="1" stroke-opacity="0.5"/>
<circle cx="539" cy="419" r="5" fill="rgb(24,160,80)" fill-opacity="0.75"/>
<line x1="309" y1="427" x2="309" y2="445" stroke="rgb(15,167,80)" stroke-width="1" stroke-opacity="0.5"/>
<circle cx="309" cy="436" r="5" fill="rgb(15,167,80)" fill-opacity="0.75"/>
<line x1="689" y1="400" x2="689" y2="421" stroke="rgb(28,156,80)" stroke-width="1" stroke-opacity="0.5"/>
<circle cx="689" cy="411" r="5" fill="rgb(28,156,80)" fill-opacity="0.75"/>
<line x1="417" y1="400" x2="417" y2="430" stroke="rgb(26,158,80)" stroke-width="1" stroke-opacity="0.5"/>
<circle cx="417" cy="415" r="5" fill="rgb(26,158,80)" fill-opacity="0.75"/>
<line x1="662" y1="445" x2="662" y2="447" stroke="rgb(10,171,80)" stroke-width="1" stroke-opacity="0.5"/>
<circle cx="662" cy="446" r="5" fill="rgb(10,171,80)" fill-opacity="0.75"/>
<line x1="600" y1="423" x2="600" y2="444" stroke="rgb(16,166,80)" stroke-width="1" stroke-opacity="0.5"/>
<circle cx="600" cy="434" r="5" fill="rgb(16,166,80)" fill-opacity="0.75"/>
<line x1="769" y1="-123" x2="769" y2="252" stroke="rgb(210,8,80)" stroke-width="1" stroke-opacity="0.5"/>
<circle cx="769" cy="65" r="5" fill="rgb(210,8,80)" fill-opacity="0.75"/>
<line x1="607" y1="404" x2="607" y2="438" stroke="rgb(23,160,80)" stroke-width="1" stroke-opacity="0.5"/>
<circle cx="607" cy="421" r="5" fill="rgb(23,160,80)" fill-opacity="0.75"/>
<line x1="646" y1="415" x2="646" y2="438" stroke="rgb(20,163,80)" stroke-width="1" stroke-opacity="0.5"/>
<circle cx="646" cy="427" r="5" fill="rgb(20,163,80)" fill-opacity="0.75"/>
<line x1="308" y1="414" x2="308" y2="433" stroke="rgb(21,162,80)" stroke-width="1" stroke-opacity="0.5"/>
<circle cx="308" cy="424" r="5" fill="rgb(21,162,80)" fill-opacity="0.75"/>
<line x1="130" y1="407" x2="130" y2="433" stroke="rgb(23,160,80)" stroke-width="1" stroke-opacity="0.5"/>
<circle cx="130" cy="420" r="5" fill="rgb(23,160,80)" fill-opacity="0.75"/>
<line x1="634" y1="307" x2="634" y2="381" stroke="rgb(63,127,80)" stroke-width="1" stroke-opacity="0.5"/>
<circle cx="634" cy="344" r="5" fill="rgb(63,127,80)" fill-opacity="0.75"/>
<line x1="146" y1="358" x2="146" y2="415" stroke="rgb(41,146,80)" stroke-width="1" stroke-opacity="0.5"/>
<circle cx="146" cy="387" r="5" fill="rgb(41,146,80)" fill-opacity="0.75"/>
<line x1="698" y1="282" x2="698" y2="354" stroke="rgb(77,116,80)" stroke-width="1" stroke-opacity="0.5"/>
<circle cx="698" cy="318" r="5" fill="rgb(77,116,80)" fill-opacity="0.75"/>
<line x1="790" y1="412" x2="790" y2="431" stroke="rgb(22,161,80)" stroke-width="1" stroke-opacity="0.5"/>
<circle cx="790" cy="422" r="5" fill="rgb(22,161,80)" fill-opacity="0.75"/>
<line x1="273" y1="393" x2="273" y2="425" stroke="rgb(29,155,80)" stroke-width="1" stroke-opacity="0.5"/>
<circle cx="273" cy="409" r="5" fill="rgb(29,155,80)" fill-opacity="0.75"/>
<line x1="381" y1="353" x2="381" y2="407" stroke="rgb(44,143,80)" stroke-width="1" stroke-opacity="0.5"/>
<circle cx="381" cy="380" r="5" fill="rgb(44,143,80)" fill-opacity="0.75"/>
<line x1="513" y1="303" x2="513" y2="409" stroke="rgb(57,133,80)" stroke-width="1" stroke-opacity="0.5"/>
<circle cx="513" cy="356" r="5" fill="rgb(57,133,80)" fill-opacity="0.75"/>
<line x1="209" y1="424" x2="209" y2="437" stroke="rgb(18,164,80)" stroke-width="1" stroke-opacity="0.5"/>
<circle cx="209" cy="430" r="5" fill="rgb(18,164,80)" fill-opacity="0.75"/>
<line x1="654" y1="385" x2="654" y2="425" stroke="rgb(31,154,80)" stroke-width="1" stroke-opacity="0.5"/>
<circle cx="654" cy="405" r="5" fill="rgb(31,154,80)" fill-opacity="0.75"/>
<line x1="286" y1="436" x2="286" y2="445" stroke="rgb(13,169,80)" stroke-width="1" stroke-opacity="0.5"/>
<circle cx="286" cy="440" r="5" fill="rgb(13,169,80)" fill-opacity="0.75"/>
<line x1="627" y1="340" x2="627" y2="419" stroke="rgb(45,143,80)" stroke-width="1" stroke-opacity="0.5"/>
<circle cx="627" cy="379" r="5" fill="rgb(45,143,80)" fill-opacity="0.75"/>
<line x1="447" y1="381" x2="447" y2="424" stroke="rgb(32,153,80)" stroke-width="1" stroke-opacity="0.5"/>
<circle cx="447" cy="403" r="5" fill="rgb(32,153,80)" fill-opacity="0.75"/>
<line x1="533" y1="390" x2="533" y2="434" stroke="rgb(27,157,80)" stroke-width="1" stroke-opacity="0.5"/>
<circle cx="533" cy="412" r="5" fill="rgb(27,157,80)" fill-opacity="0.75"/>
<line x1="337" y1="343" x2="337" y2="431" stroke="rgb(41,146,80)" stroke-width="1" stroke-opacity="0.5"/>
<circle cx="337" cy="387" r="5" fill="rgb(41,146,80)" fill-opacity="0.75"/>
<line x1="109" y1="275" x2="109" y2="340" stroke="rgb(82,112,80)" stroke-width="1" stroke-opacity="0.5"/>
<circle cx="109" cy="307" r="5" fill="rgb(82,112,80)" fill-opacity="0.75"/>
<line x1="124" y1="338" x2="124" y2="400" stroke="rgb(50,138,80)" stroke-width="1" stroke-opacity="0.5"/>
<circle cx="124" cy="369" r="5" fill="rgb(50,138,80)" fill-opacity="0.75"/>
<line x1="695" y1="412" x2="695" y2="431" stroke="rgb(22,161,80)" stroke-width="1" stroke-opacity="0.5"/>
<circle cx="695" cy="422" r="5" fill="rgb(22,161,80)" fill-opacity="0.75"/>
<line x1="363" y1="403" x2="363" y2="425" stroke="rgb(26,158,80)" stroke-width="1" stroke-opacity="0.5"/>
<circle cx="363" cy="414" r="5" fill="rgb(26,158,80)" fill-opacity="0.75"/>
<line x1="695" y1="254" x2="695" y2="377" stroke="rgb(78,115,80)" stroke-width="1" stroke-opacity="0.5"/>
<circle cx="695" cy="315" r="5" fill="rgb(78,115,80)" fill-opacity="0.75"/>
<line x1="253" y1="303" x2="253" y2="394" stroke="rgb(61,129,80)" stroke-width="1" stroke-opacity="0.5"/>
<circle cx="253" cy="348" r="5" fill="rgb(61,129,80)" fill-opacity="0.75"/>
<line x1="504" y1="425" x2="504" y2="444" stroke="rgb(16,166,80)" stroke-width="1" stroke-opacity="0.5"/>
<circle cx="504" cy="435" r="5" fill="rgb(16,166,80)" fill-opacity="0.75"/>
<line x1="515" y1="276" x2="515" y2="351" stroke="rgb(79,115,80)" stroke-width="1" stroke-opacity="0.5"/>
<circle cx="515" cy="314" r="5" fill="rgb(79,115,80)" fill-opacity="0.75"/>
<line x1="690" y1="392" x2="690" y2="419" stroke="rgb(31,154,80)" stroke-width="1" stroke-opacity="0.5"/>
<circle cx="690" cy="405" r="5" fill="rgb(31,154,80)" fill-opacity="0.75"/>
<line x1="530" y1="311" x2="530" y2="398" stroke="rgb(58,132,80)" stroke-width="1" stroke-opacity="0.5"/>
<circle cx="530" cy="354" r="5" fill="rgb(58,132,80)" fill-opacity="0.75"/>
<line x1="392" y1="-7" x2="392" y2="368" stroke="rgb(149,57,80)" stroke-width="1" stroke-opacity="0.5"/>
<circle cx="392" cy="181" r="5" fill="rgb(149,57,80)" fill-opacity="0.75"/>
<line x1="524" y1="403" x2="524" y2="439" stroke="rgb(23,160,80)" stroke-width="1" stroke-opacity="0.5"/>
<circle cx="524" cy="421" r="5" fill="rgb(23,160,80)" fill-opacity="0.75"/>
<line x1="441" y1="371" x2="441" y2="422" stroke="rgb(36,150,80)" stroke-width="1" stroke-opacity="0.5"/>
<circle cx="441" cy="396" r="5" fill="rgb(36,150,80)" fill-opacity="0.75"/>
<line x1="590" y1="432" x2="590" y2="444" stroke="rgb(14,168,80)" stroke-width="1" stroke-opacity="0.5"/>
<circle cx="590" cy="438" r="5" fill="rgb(14,168,80)" fill-opacity="0.75"/>
<line x1="446" y1="325" x2="446" y2="432" stroke="rgb(45,142,80)" stroke-width="1" stroke-opacity="0.5"/>
<circle cx="446" cy="378" r="5" fill="rgb(45,142,80)" fill-opacity="0.75"/>
<line x1="608" y1="131" x2="608" y2="352" stroke="rgb(117,84,80)" stroke-width="1" stroke-opacity="0.5"/>
<circle cx="608" cy="242" r="5" fill="rgb(117,84,80)" fill-opacity="0.75"/>
<circle cx="248" cy="446" r="8" fill="none" stroke="gold" stroke-width="2.5"/>
<text x="258" y="440" font-size="10" fill="#333" font-family="sans-serif">best</text>
<text x="823" y="57" text-anchor="end" font-size="9" fill="#888" font-family="sans-serif">colour: blue=best, red=worst</text>
</svg>
