<?xml version="1.0"?>
<svg xmlns="http://www.w3.org/2000/svg" width="850" height="520">
<rect width="850" height="520" fill="#fafafa"/>
<text x="425" y="28" text-anchor="middle" font-size="15" font-weight="bold" font-family="sans-serif">VNS: max_iterations vs avg (budget=100k)</text>
<line x1="75" y1="465" x2="825" y2="465" stroke="#ddd" stroke-width="1"/>
<text x="71" y="469" text-anchor="end" font-size="10" font-family="sans-serif">-788</text>
<line x1="75" y1="381" x2="825" y2="381" stroke="#ddd" stroke-width="1"/>
<text x="71" y="385" text-anchor="end" font-size="10" font-family="sans-serif">2680</text>
<line x1="75" y1="297" x2="825" y2="297" stroke="#ddd" stroke-width="1"/>
<text x="71" y="301" text-anchor="end" font-size="10" font-family="sans-serif">6148</text>
<line x1="75" y1="213" x2="825" y2="213" stroke="#ddd" stroke-width="1"/>
<text x="71" y="217" text-anchor="end" font-size="10" font-family="sans-serif">9617</text>
<line x1="75" y1="129" x2="825" y2="129" stroke="#ddd" stroke-width="1"/>
<text x="71" y="133" text-anchor="end" font-size="10" font-family="sans-serif">13085</text>
<line x1="75" y1="45" x2="825" y2="45" stroke="#ddd" stroke-width="1"/>
<text x="71" y="49" text-anchor="end" font-size="10" font-family="sans-serif">16553</text>
<line x1="75" y1="465" x2="75" y2="469" stroke="#888"/>
<text x="75" y="481" text-anchor="middle" font-size="9" font-family="sans-serif">-47.90</text>
<line x1="225" y1="465" x2="225" y2="469" stroke="#888"/>
<text x="225" y="481" text-anchor="middle" font-size="9" font-family="sans-serif">171.66</text>
<line x1="374" y1="465" x2="374" y2="469" stroke="#888"/>
<text x="374" y="481" text-anchor="middle" font-size="9" font-family="sans-serif">391.22</text>
<line x1="525" y1="465" x2="525" y2="469" stroke="#888"/>
<text x="525" y="481" text-anchor="middle" font-size="9" font-family="sans-serif">610.78</text>
<line x1="675" y1="465" x2="675" y2="469" stroke="#888"/>
<text x="675" y="481" text-anchor="middle" font-size="9" font-family="sans-serif">830.34</text>
<line x1="825" y1="465" x2="825" y2="469" stroke="#888"/>
<text x="825" y="481" text-anchor="middle" font-size="9" font-family="sans-serif">1049.90</text>
<line x1="75" y1="45" x2="75" y2="465" stroke="#333" stroke-width="1.5"/>
<line x1="75" y1="465" x2="825" y2="465" stroke="#333" stroke-width="1.5"/>
<text x="450" y="515" text-anchor="middle" font-size="12" font-family="sans-serif">max_iterations</text>
<text transform="rotate(-90,18,255)" x="18" y="259" text-anchor="middle" font-size="11" font-family="sans-serif">Objective value</text>
<line x1="553" y1="343" x2="553" y2="384" stroke="rgb(53,136,80)" stroke-width="1" stroke-opacity="0.5"/>
<circle cx="553" cy="364" r="5" fill="rgb(53,136,80)" fill-opacity="0.75"/>
<line x1="790" y1="44" x2="790" y2="85" stroke="rgb(209,8,80)" stroke-width="1" stroke-opacity="0.5"/>
<circle cx="790" cy="65" r="5" fill="rgb(209,8,80)" fill-opacity="0.75"/>
<line x1="441" y1="351" x2="441" y2="394" stroke="rgb(48,140,80)" stroke-width="1" stroke-opacity="0.5"/>
<circle cx="441" cy="373" r="5" fill="rgb(48,140,80)" fill-opacity="0.75"/>
<line x1="396" y1="355" x2="396" y2="399" stroke="rgb(46,141,80)" stroke-width="1" stroke-opacity="0.5"/>
<circle cx="396" cy="377" r="5" fill="rgb(46,141,80)" fill-opacity="0.75"/>
<line x1="252" y1="379" x2="252" y2="425" stroke="rgb(33,152,80)" stroke-width="1" stroke-opacity="0.5"/>
<circle cx="252" cy="402" r="5" fill="rgb(33,152,80)" fill-opacity="0.75"/>
<line x1="174" y1="393" x2="174" y2="440" stroke="rgb(25,159,80)" stroke-width="1" stroke-opacity="0.5"/>
<circle cx="174" cy="417" r="5" fill="rgb(25,159,80)" fill-opacity="0.75"/>
<line x1="264" y1="343" x2="264" y2="387" stroke="rgb(52,136,80)" stroke-width="1" stroke-opacity="0.5"/>
<circle cx="264" cy="365" r="5" fill="rgb(52,136,80)" fill-opacity="0.75"/>
<line x1="641" y1="280" x2="641" y2="324" stroke="rgb(85,109,80)" stroke-width="1" stroke-opacity="0.5"/>
<circle cx="641" cy="302" r="5" fill="rgb(85,109,80)" fill-opacity="0.75"/>
<line x1="560" y1="373" x2="560" y2="416" stroke="rgb(37,149,80)" stroke-width="1" stroke-opacity="0.5"/>
<circle cx="560" cy="394" r="5" fill="rgb(37,149,80)" fill-opacity="0.75"/>
<line x1="124" y1="400" x2="124" y2="430" stroke="rgb(26,158,80)" stroke-width="1" stroke-opacity="0.5"/>
<circle cx="124" cy="415" r="5" fill="rgb(26,158,80)" fill-opacity="0.75"/>
<line x1="638" y1="371" x2="638" y2="413" stroke="rgb(38,148,80)" stroke-width="1" stroke-opacity="0.5"/>
<circle cx="638" cy="392" r="5" fill="rgb(38,148,80)" fill-opacity="0.75"/>
<line x1="290" y1="374" x2="290" y2="417" stroke="rgb(36,149,80)" stroke-width="1" stroke-opacity="0.5"/>
<circle cx="290" cy="395" r="5" fill="rgb(36,149,80)" fill-opacity="0.75"/>
<line x1="305" y1="304" x2="305" y2="347" stroke="rgb(73,119,80)" stroke-width="1" stroke-opacity="0.5"/>
<circle cx="305" cy="325" r="5" fill="rgb(73,119,80)" fill-opacity="0.75"/>
<line x1="783" y1="359" x2="783" y2="400" stroke="rgb(45,143,80)" stroke-width="1" stroke-opacity="0.5"/>
<circle cx="783" cy="379" r="5" fill="rgb(45,143,80)" fill-opacity="0.75"/>
<line x1="732" y1="374" x2="732" y2="415" stroke="rgb(37,149,80)" stroke-width="1" stroke-opacity="0.5"/>
<circle cx="732" cy="395" r="5" fill="rgb(37,149,80)" fill-opacity="0.75"/>
<line x1="198" y1="357" x2="198" y2="403" stroke="rgb(44,143,80)" stroke-width="1" stroke-opacity="0.5"/>
<circle cx="198" cy="380" r="5" fill="rgb(44,143,80)" fill-opacity="0.75"/>
<line x1="652" y1="349" x2="652" y2="392" stroke="rgb(49,139,80)" stroke-width="1" stroke-opacity="0.5"/>
<circle cx="652" cy="371" r="5" fill="rgb(49,139,80)" fill-opacity="0.75"/>
<line x1="503" y1="284" x2="503" y2="327" stroke="rgb(83,111,80)" stroke-width="1" stroke-opacity="0.5"/>
<circle cx="503" cy="306" r="5" fill="rgb(83,111,80)" fill-opacity="0.75"/>
<line x1="182" y1="368" x2="182" y2="413" stroke="rgb(39,147,80)" stroke-width="1" stroke-opacity="0.5"/>
<circle cx="182" cy="390" r="5" fill="rgb(39,147,80)" fill-opacity="0.75"/>
<line x1="521" y1="326" x2="521" y2="370" stroke="rgb(61,129,80)" stroke-width="1" stroke-opacity="0.5"/>
<circle cx="521" cy="348" r="5" fill="rgb(61,129,80)" fill-opacity="0.75"/>
<line x1="618" y1="347" x2="618" y2="392" stroke="rgb(50,138,80)" stroke-width="1" stroke-opacity="0.5"/>
<circle cx="618" cy="369" r="5" fill="rgb(50,138,80)" fill-opacity="0.75"/>
<line x1="380" y1="331" x2="380" y2="374" stroke="rgb(58,131,80)" stroke-width="1" stroke-opacity="0.5"/>
<circle cx="380" cy="353" r="5" fill="rgb(58,131,80)" fill-opacity="0.75"/>
<line x1="477" y1="318" x2="477" y2="361" stroke="rgb(65,126,80)" stroke-width="1" stroke-opacity="0.5"/>
<circle cx="477" cy="340" r="5" fill="rgb(65,126,80)" fill-opacity="0.75"/>
<line x1="523" y1="308" x2="523" y2="356" stroke="rgb(69,122,80)" stroke-width="1" stroke-opacity="0.5"/>
<circle cx="523" cy="332" r="5" fill="rgb(69,122,80)" fill-opacity="0.75"/>
<line x1="109" y1="323" x2="109" y2="328" stroke="rgb(73,119,80)" stroke-width="1" stroke-opacity="0.5"/>
<circle cx="109" cy="325" r="5" fill="rgb(73,119,80)" fill-opacity="0.75"/>
<line x1="303" y1="396" x2="303" y2="438" stroke="rgb(25,159,80)" stroke-width="1" stroke-opacity="0.5"/>
<circle cx="303" cy="417" r="5" fill="rgb(25,159,80)" fill-opacity="0.75"/>
<line x1="201" y1="393" x2="201" y2="437" stroke="rgb(26,158,80)" stroke-width="1" stroke-opacity="0.5"/>
<circle cx="201" cy="415" r="5" fill="rgb(26,158,80)" fill-opacity="0.75"/>
<line x1="789" y1="299" x2="789" y2="340" stroke="rgb(76,117,80)" stroke-width="1" stroke-opacity="0.5"/>
<circle cx="789" cy="319" r="5" fill="rgb(76,117,80)" fill-opacity="0.75"/>
<line x1="159" y1="424" x2="159" y2="468" stroke="rgb(10,171,80)" stroke-width="1" stroke-opacity="0.5"/>
<circle cx="159" cy="446" r="5" fill="rgb(10,171,80)" fill-opacity="0.75"/>
<line x1="145" y1="370" x2="145" y2="412" stroke="rgb(39,147,80)" stroke-width="1" stroke-opacity="0.5"/>
<circle cx="145" cy="391" r="5" fill="rgb(39,147,80)" fill-opacity="0.75"/>
<line x1="344" y1="323" x2="344" y2="366" stroke="rgb(63,127,80)" stroke-width="1" stroke-opacity="0.5"/>
<circle cx="344" cy="344" r="5" fill="rgb(63,127,80)" fill-opacity="0.75"/>
<line x1="148" y1="387" x2="148" y2="431" stroke="rgb(29,155,80)" stroke-width="1" stroke-opacity="0.5"/>
<circle cx="148" cy="409" r="5" fill="rgb(29,155,80)" fill-opacity="0.75"/>
<line x1="590" y1="369" x2="590" y2="410" stroke="rgb(39,147,80)" stroke-width="1" stroke-opacity="0.5"/>
<circle cx="590" cy="390" r="5" fill="rgb(39,147,80)" fill-opacity="0.75"/>
<line x1="741" y1="336" x2="741" y2="381" stroke="rgb(56,134,80)" stroke-width="1" stroke-opacity="0.5"/>
<circle cx="741" cy="358" r="5" fill="rgb(56,134,80)" fill-opacity="0.75"/>
<line x1="131" y1="407" x2="131" y2="450" stroke="rgb(19,164,80)" stroke-width="1" stroke-opacity="0.5"/>
<circle cx="131" cy="428" r="5" fill="rgb(19,164,80)" fill-opacity="0.75"/>
<line x1="693" y1="262" x2="693" y2="313" stroke="rgb(93,103,80)" stroke-width="1" stroke-opacity="0.5"/>
<circle cx="693" cy="288" r="5" fill="rgb(93,103,80)" fill-opacity="0.75"/>
<line x1="340" y1="264" x2="340" y2="308" stroke="rgb(94,103,80)" stroke-width="1" stroke-opacity="0.5"/>
<circle cx="340" cy="286" r="5" fill="rgb(94,103,80)" fill-opacity="0.75"/>
<line x1="409" y1="290" x2="409" y2="336" stroke="rgb(79,114,80)" stroke-width="1" stroke-opacity="0.5"/>
<circle cx="409" cy="313" r="5" fill="rgb(79,114,80)" fill-opacity="0.75"/>
<line x1="585" y1="294" x2="585" y2="339" stroke="rgb(77,116,80)" stroke-width="1" stroke-opacity="0.5"/>
<circle cx="585" cy="317" r="5" fill="rgb(77,116,80)" fill-opacity="0.75"/>
<line x1="689" y1="346" x2="689" y2="391" stroke="rgb(50,138,80)" stroke-width="1" stroke-opacity="0.5"/>
<circle cx="689" cy="368" r="5" fill="rgb(50,138,80)" fill-opacity="0.75"/>
<line x1="266" y1="390" x2="266" y2="435" stroke="rgb(27,157,80)" stroke-width="1" stroke-opacity="0.5"/>
<circle cx="266" cy="412" r="5" fill="rgb(27,157,80)" fill-opacity="0.75"/>
<line x1="477" y1="295" x2="477" y2="337" stroke="rgb(78,115,80)" stroke-width="1" stroke-opacity="0.5"/>
<circle cx="477" cy="316" r="5" fill="rgb(78,115,80)" fill-opacity="0.75"/>
<line x1="373" y1="324" x2="373" y2="366" stroke="rgb(63,128,80)" stroke-width="1" stroke-opacity="0.5"/>
<circle cx="373" cy="345" r="5" fill="rgb(63,128,80)" fill-opacity="0.75"/>
<line x1="510" y1="388" x2="510" y2="431" stroke="rgb(29,155,80)" stroke-width="1" stroke-opacity="0.5"/>
<circle cx="510" cy="409" r="5" fill="rgb(29,155,80)" fill-opacity="0.75"/>
<line x1="164" y1="368" x2="164" y2="412" stroke="rgb(39,147,80)" stroke-width="1" stroke-opacity="0.5"/>
<circle cx="164" cy="390" r="5" fill="rgb(39,147,80)" fill-opacity="0.75"/>
<line x1="227" y1="335" x2="227" y2="379" stroke="rgb(56,133,80)" stroke-width="1" stroke-opacity="0.5"/>
<circle cx="227" cy="357" r="5" fill="rgb(56,133,80)" fill-opacity="0.75"/>
<line x1="753" y1="344" x2="753" y2="385" stroke="rgb(52,136,80)" stroke-width="1" stroke-opacity="0.5"/>
<circle cx="753" cy="365" r="5" fill="rgb(52,136,80)" fill-opacity="0.75"/>
<line x1="516" y1="331" x2="516" y2="375" stroke="rgb(58,131,80)" stroke-width="1" stroke-opacity="0.5"/>
<circle cx="516" cy="353" r="5" fill="rgb(58,131,80)" fill-opacity="0.75"/>
<line x1="118" y1="401" x2="118" y2="425" stroke="rgb(27,157,80)" stroke-width="1" stroke-opacity="0.5"/>
<circle cx="118" cy="413" r="5" fill="rgb(27,157,80)" fill-opacity="0.75"/>
<line x1="414" y1="366" x2="414" y2="409" stroke="rgb(40,146,80)" stroke-width="1" stroke-opacity="0.5"/>
<circle cx="414" cy="388" r="5" fill="rgb(40,146,80)" fill-opacity="0.75"/>
<line x1="687" y1="320" x2="687" y2="361" stroke="rgb(65,126,80)" stroke-width="1" stroke-opacity="0.5"/>
<circle cx="687" cy="341" r="5" fill="rgb(65,126,80)" fill-opacity="0.75"/>
<line x1="311" y1="313" x2="311" y2="358" stroke="rgb(68,124,80)" stroke-width="1" stroke-opacity="0.5"/>
<circle cx="311" cy="335" r="5" fill="rgb(68,124,80)" fill-opacity="0.75"/>
<line x1="487" y1="306" x2="487" y2="347" stroke="rgb(72,120,80)" stroke-width="1" stroke-opacity="0.5"/>
<circle cx="487" cy="326" r="5" fill="rgb(72,120,80)" fill-opacity="0.75"/>
<line x1="427" y1="369" x2="427" y2="412" stroke="rgb(39,147,80)" stroke-width="1" stroke-opacity="0.5"/>
<circle cx="427" cy="390" r="5" fill="rgb(39,147,80)" fill-opacity="0.75"/>
<line x1="762" y1="271" x2="762" y2="310" stroke="rgb(91,104,80)" stroke-width="1" stroke-opacity="0.5"/>
<circle cx="762" cy="290" r="5" fill="rgb(91,104,80)" fill-opacity="0.75"/>
<line x1="566" y1="382" x2="566" y2="424" stroke="rgb(32,153,80)" stroke-width="1" stroke-opacity="0.5"/>
<circle cx="566" cy="403" r="5" fill="rgb(32,153,80)" fill-opacity="0.75"/>
<line x1="738" y1="367" x2="738" y2="409" stroke="rgb(40,146,80)" stroke-width="1" stroke-opacity="0.5"/>
<circle cx="738" cy="388" r="5" fill="rgb(40,146,80)" fill-opacity="0.75"/>
<line x1="367" y1="315" x2="367" y2="357" stroke="rgb(67,124,80)" stroke-width="1" stroke-opacity="0.5"/>
<circle cx="367" cy="336" r="5" fill="rgb(67,124,80)" fill-opacity="0.75"/>
<line x1="277" y1="364" x2="277" y2="408" stroke="rgb(41,145,80)" stroke-width="1" stroke-opacity="0.5"/>
<circle cx="277" cy="386" r="5" fill="rgb(41,145,80)" fill-opacity="0.75"/>
<line x1="353" y1="286" x2="353" y2="329" stroke="rgb(82,112,80)" stroke-width="1" stroke-opacity="0.5"/>
<circle cx="353" cy="308" r="5" fill="rgb(82,112,80)" fill-opacity="0.75"/>
<line x1="457" y1="383" x2="457" y2="426" stroke="rgb(31,153,80)" stroke-width="1" stroke-opacity="0.5"/>
<circle cx="457" cy="404" r="5" fill="rgb(31,153,80)" fill-opacity="0.75"/>
<line x1="208" y1="368" x2="208" y2="413" stroke="rgb(39,147,80)" stroke-width="1" stroke-opacity="0.5"/>
<circle cx="208" cy="391" r="5" fill="rgb(39,147,80)" fill-opacity="0.75"/>
<line x1="527" y1="288" x2="527" y2="330" stroke="rgb(81,112,80)" stroke-width="1" stroke-opacity="0.5"/>
<circle cx="527" cy="309" r="5" fill="rgb(81,112,80)" fill-opacity="0.75"/>
<line x1="275" y1="389" x2="275" y2="432" stroke="rgb(28,156,80)" stroke-width="1" stroke-opacity="0.5"/>
<circle cx="275" cy="411" r="5" fill="rgb(28,156,80)" fill-opacity="0.75"/>
<line x1="374" y1="320" x2="374" y2="363" stroke="rgb(64,126,80)" stroke-width="1" stroke-opacity="0.5"/>
<circle cx="374" cy="342" r="5" fill="rgb(64,126,80)" fill-opacity="0.75"/>
<line x1="117" y1="404" x2="117" y2="424" stroke="rgb(27,157,80)" stroke-width="1" stroke-opacity="0.5"/>
<circle cx="117" cy="414" r="5" fill="rgb(27,157,80)" fill-opacity="0.75"/>
<line x1="469" y1="386" x2="469" y2="430" stroke="rgb(30,155,80)" stroke-width="1" stroke-opacity="0.5"/>
<circle cx="469" cy="408" r="5" fill="rgb(30,155,80)" fill-opacity="0.75"/>
<line x1="421" y1="346" x2="421" y2="389" stroke="rgb(51,138,80)" stroke-width="1" stroke-opacity="0.5"/>
<circle cx="421" cy="368" r="5" fill="rgb(51,138,80)" fill-opacity="0.75"/>
<line x1="240" y1="328" x2="240" y2="372" stroke="rgb(60,130,80)" stroke-width="1" stroke-opacity="0.5"/>
<circle cx="240" cy="350" r="5" fill="rgb(60,130,80)" fill-opacity="0.75"/>
<line x1="707" y1="382" x2="707" y2="424" stroke="rgb(32,153,80)" stroke-width="1" stroke-opacity="0.5"/>
<circle cx="707" cy="403" r="5" fill="rgb(32,153,80)" fill-opacity="0.75"/>
<line x1="769" y1="286" x2="769" y2="331" stroke="rgb(82,112,80)" stroke-width="1" stroke-opacity="0.5"/>
<circle cx="769" cy="308" r="5" fill="rgb(82,112,80)" fill-opacity="0.75"/>
<line x1="372" y1="276" x2="372" y2="319" stroke="rgb(88,107,80)" stroke-width="1" stroke-opacity="0.5"/>
<circle cx="372" cy="297" r="5" fill="rgb(88,107,80)" fill-opacity="0.75"/>
<line x1="178" y1="380" x2="178" y2="424" stroke="rgb(33,152,80)" stroke-width="1" stroke-opacity="0.5"/>
<circle cx="178" cy="402" r="5" fill="rgb(33,152,80)" fill-opacity="0.75"/>
<line x1="484" y1="377" x2="484" y2="419" stroke="rgb(35,151,80)" stroke-width="1" stroke-opacity="0.5"/>
<circle cx="484" cy="398" r="5" fill="rgb(35,151,80)" fill-opacity="0.75"/>
<line x1="652" y1="331" x2="652" y2="373" stroke="rgb(59,131,80)" stroke-width="1" stroke-opacity="0.5"/>
<circle cx="652" cy="352" r="5" fill="rgb(59,131,80)" fill-opacity="0.75"/>
<line x1="227" y1="361" x2="227" y2="405" stroke="rgb(43,144,80)" stroke-width="1" stroke-opacity="0.5"/>
<circle cx="227" cy="383" r="5" fill="rgb(43,144,80)" fill-opacity="0.75"/>
<line x1="577" y1="294" x2="577" y2="336" stroke="rgb(78,115,80)" stroke-width="1" stroke-opacity="0.5"/>
<circle cx="577" cy="315" r="5" fill="rgb(78,115,80)" fill-opacity="0.75"/>
<line x1="151" y1="370" x2="151" y2="414" stroke="rgb(38,148,80)" stroke-width="1" stroke-opacity="0.5"/>
<circle cx="151" cy="392" r="5" fill="rgb(38,148,80)" fill-opacity="0.75"/>
<line x1="314" y1="319" x2="314" y2="363" stroke="rgb(65,126,80)" stroke-width="1" stroke-opacity="0.5"/>
<circle cx="314" cy="341" r="5" fill="rgb(65,126,80)" fill-opacity="0.75"/>
<line x1="613" y1="307" x2="613" y2="351" stroke="rgb(71,121,80)" stroke-width="1" stroke-opacity="0.5"/>
<circle cx="613" cy="329" r="5" fill="rgb(71,121,80)" fill-opacity="0.75"/>
<line x1="473" y1="341" x2="473" y2="385" stroke="rgb(53,135,80)" stroke-width="1" stroke-opacity="0.5"/>
<circle cx="473" cy="363" r="5" fill="rgb(53,135,80)" fill-opacity="0.75"/>
<line x1="622" y1="360" x2="622" y2="403" stroke="rgb(44,143,80)" stroke-width="1" stroke-opacity="0.5"/>
<circle cx="622" cy="381" r="5" fill="rgb(44,143,80)" fill-opacity="0.75"/>
<line x1="437" y1="301" x2="437" y2="342" stroke="rgb(75,118,80)" stroke-width="1" stroke-opacity="0.5"/>
<circle cx="437" cy="322" r="5" fill="rgb(75,118,80)" fill-opacity="0.75"/>
<line x1="372" y1="313" x2="372" y2="357" stroke="rgb(68,124,80)" stroke-width="1" stroke-opacity="0.5"/>
<circle cx="372" cy="335" r="5" fill="rgb(68,124,80)" fill-opacity="0.75"/>
<line x1="435" y1="306" x2="435" y2="349" stroke="rgb(72,120,80)" stroke-width="1" stroke-opacity="0.5"/>
<circle cx="435" cy="328" r="5" fill="rgb(72,120,80)" fill-opacity="0.75"/>
<line x1="304" y1="336" x2="304" y2="378" stroke="rgb(56,133,80)" stroke-width="1" stroke-opacity="0.5"/>
<circle cx="304" cy="357" r="5" fill="rgb(56,133,80)" fill-opacity="0.75"/>
<line x1="227" y1="393" x2="227" y2="438" stroke="rgb(26,158,80)" stroke-width="1" stroke-opacity="0.5"/>
<circle cx="227" cy="416" r="5" fill="rgb(26,158,80)" fill-opacity="0.75"/>
<line x1="214" y1="379" x2="214" y2="423" stroke="rgb(33,152,80)" stroke-width="1" stroke-opacity="0.5"/>
<circle cx="214" cy="401" r="5" fill="rgb(33,152,80)" fill-opacity="0.75"/>
<line x1="636" y1="326" x2="636" y2="370" stroke="rgb(61,129,80)" stroke-width="1" stroke-opacity="0.5"/>
<circle cx="636" cy="348" r="5" fill="rgb(61,129,80)" fill-opacity="0.75"/>
<line x1="678" y1="342" x2="678" y2="382" stroke="rgb(54,135,80)" stroke-width="1" stroke-opacity="0.5"/>
<circle cx="678" cy="362" r="5" fill="rgb(54,135,80)" fill-opacity="0.75"/>
<line x1="773" y1="283" x2="773" y2="324" stroke="rgb(84,110,80)" stroke-width="1" stroke-opacity="0.5"/>
<circle cx="773" cy="304" r="5" fill="rgb(84,110,80)" fill-opacity="0.75"/>
<line x1="637" y1="334" x2="637" y2="375" stroke="rgb(58,132,80)" stroke-width="1" stroke-opacity="0.5"/>
<circle cx="637" cy="354" r="5" fill="rgb(58,132,80)" fill-opacity="0.75"/>
<line x1="532" y1="342" x2="532" y2="384" stroke="rgb(53,136,80)" stroke-width="1" stroke-opacity="0.5"/>
<circle cx="532" cy="363" r="5" fill="rgb(53,136,80)" fill-opacity="0.75"/>
<line x1="609" y1="336" x2="609" y2="376" stroke="rgb(57,133,80)" stroke-width="1" stroke-opacity="0.5"/>
<circle cx="609" cy="356" r="5" fill="rgb(57,133,80)" fill-opacity="0.75"/>
<line x1="485" y1="251" x2="485" y2="294" stroke="rgb(101,97,80)" stroke-width="1" stroke-opacity="0.5"/>
<circle cx="485" cy="273" r="5" fill="rgb(101,97,80)" fill-opacity="0.75"/>
<line x1="499" y1="266" x2="499" y2="307" stroke="rgb(93,103,80)" stroke-width="1" stroke-opacity="0.5"/>
<circle cx="499" cy="286" r="5" fill="rgb(93,103,80)" fill-opacity="0.75"/>
<line x1="393" y1="292" x2="393" y2="335" stroke="rgb(79,114,80)" stroke-width="1" stroke-opacity="0.5"/>
<circle cx="393" cy="313" r="5" fill="rgb(79,114,80)" fill-opacity="0.75"/>
<line x1="230" y1="379" x2="230" y2="423" stroke="rgb(33,152,80)" stroke-width="1" stroke-opacity="0.5"/>
<circle cx="230" cy="401" r="5" fill="rgb(33,152,80)" fill-opacity="0.75"/>
<line x1="490" y1="309" x2="490" y2="352" stroke="rgb(70,122,80)" stroke-width="1" stroke-opacity="0.5"/>
<circle cx="490" cy="331" r="5" fill="rgb(70,122,80)" fill-opacity="0.75"/>
<line x1="670" y1="360" x2="670" y2="401" stroke="rgb(44,143,80)" stroke-width="1" stroke-opacity="0.5"/>
<circle cx="670" cy="381" r="5" fill="rgb(44,143,80)" fill-opacity="0.75"/>
<circle cx="159" cy="446" r="8" fill="none" stroke="gold" stroke-width="2.5"/>
<text x="169" y="440" font-size="10" fill="#333" font-family="sans-serif">best</text>
<text x="823" y="57" text-anchor="end" font-size="9" fill="#888" font-family="sans-serif">colour: blue=best, red=worst</text>
</svg>
